<svg width="588" height="1024" viewBox="0 0 588 1024" fill="none" xmlns="http://www.w3.org/2000/svg">
<g clip-path="url(#clip0_7_490)">
<rect width="588" height="1024" fill="url(#paint0_linear_7_490)"/>
<path d="M-91.4075 -103.729C-230.208 -172.929 -345.574 -124.562 -385.907 -91.7288C-399.074 -79.0621 -428.107 -46.4288 -438.907 -17.2288C-452.407 19.2712 -419.907 173.271 -376.407 176.271C-332.907 179.271 -234.407 224.771 -238.407 303.271C-242.407 381.771 -101.908 488.771 -34.4075 506.271C33.0925 523.771 38.5925 511.771 133.593 370.771C228.593 229.771 241.593 292.771 262.093 242.271C282.593 191.771 253.593 108.771 103.593 35.2712C-46.4075 -38.2288 82.0925 -17.2288 -91.4075 -103.729Z" fill="url(#paint1_linear_7_490)"/>
<path d="M728.592 740.271C589.792 671.071 474.426 719.438 434.093 752.271C420.926 764.938 391.893 797.571 381.093 826.771C367.593 863.271 400.093 1017.27 443.593 1020.27C487.093 1023.27 585.593 1068.77 581.593 1147.27C577.593 1225.77 718.092 1332.77 785.592 1350.27C853.092 1367.77 858.593 1355.77 953.593 1214.77C1048.59 1073.77 1061.59 1136.77 1082.09 1086.27C1102.59 1035.77 1073.59 952.771 923.593 879.271C773.593 805.771 902.093 826.771 728.592 740.271Z" fill="url(#paint2_linear_7_490)"/>
<g clip-path="url(#clip1_7_490)">
<path d="M397.959 494.219L397.11 505.839C397.072 506.365 397.146 506.893 397.328 507.388C397.51 507.883 397.796 508.333 398.166 508.708C398.536 509.083 398.983 509.375 399.475 509.563C399.967 509.752 400.493 509.833 401.019 509.801L406.982 509.44C407.258 509.423 407.527 509.345 407.77 509.213C408.013 509.08 408.224 508.895 408.387 508.672C408.551 508.448 408.664 508.192 408.717 507.92C408.77 507.648 408.763 507.368 408.696 507.099L405.386 493.848L397.959 494.219Z" fill="#E6E6E6"/>
<path d="M417.262 493.848L413.953 507.099C413.886 507.368 413.878 507.648 413.932 507.92C413.985 508.192 414.098 508.448 414.261 508.672C414.425 508.895 414.636 509.08 414.879 509.213C415.122 509.345 415.391 509.423 415.667 509.44L421.63 509.801C422.155 509.833 422.682 509.752 423.174 509.563C423.666 509.375 424.112 509.083 424.482 508.708C424.853 508.333 425.138 507.883 425.321 507.388C425.503 506.893 425.577 506.365 425.539 505.839L424.689 494.219L417.262 493.848Z" fill="#E6E6E6"/>
<path d="M425.075 495.833L417.028 495.024L409.018 409.313L405.99 494.748L398.085 494.465L384.761 376.142H435.665L425.075 495.833Z" fill="#5FD7AB"/>
<path d="M408.768 409.304L405.749 494.489L398.309 494.223L385.04 376.392H435.392L424.848 495.559L417.258 494.796L409.266 409.29L408.768 409.304Z" stroke="#1B2420" stroke-opacity="0.25" stroke-width="0.5"/>
<path d="M443.181 378.878L381.003 379.562C390.23 344.399 395.75 311.736 386.127 289.281L401.501 281.757C408.914 289.497 417.17 288.699 426.099 281.073L440.79 284.835C438.274 314.281 439.402 345.819 443.181 378.878Z" fill="#5FD7AB"/>
<path d="M440.523 285.025C438.035 314.35 439.155 345.739 442.902 378.631L381.328 379.308C385.904 361.835 389.559 344.974 390.883 329.677C392.207 314.389 391.205 300.642 386.45 289.401L401.448 282.062C405.154 285.878 409.095 287.614 413.243 287.427C417.396 287.239 421.711 285.126 426.163 281.348L440.523 285.025Z" stroke="#1B2420" stroke-opacity="0.25" stroke-width="0.5"/>
<path d="M428.379 274.747L397.599 275.047C396.153 267.918 391.292 249.211 395.669 244.109C395.869 242.189 396.801 240.419 398.271 239.169C399.741 237.919 401.636 237.285 403.561 237.398V237.398C408.332 229.923 416.278 231.046 421.649 235.714C427.054 237.581 429.092 240.898 428.379 245.398C432.382 248.905 433.12 253.173 431.324 258.03L428.379 274.747Z" fill="#2F2E41"/>
<path d="M425.416 293.726L403.209 290.648L398.768 284.151C404.886 280.089 407.051 274.415 404.234 266.71L419.608 266.368C418.888 273.229 421.155 278.542 427.466 281.757L425.416 293.726Z" fill="#FFB9B9"/>
<path d="M412.775 272.182C421.266 272.182 428.149 265.292 428.149 256.793C428.149 248.294 421.266 241.404 412.775 241.404C404.285 241.404 397.401 248.294 397.401 256.793C397.401 265.292 404.285 272.182 412.775 272.182Z" fill="#FFB9B9"/>
<path d="M430.102 254.299C423.863 252.69 417.728 252.469 411.764 254.51C407.965 256.352 403.403 256.182 398.33 254.665V239.311L425.72 240.042L430.102 254.299Z" fill="#2F2E41"/>
<path d="M402.398 324.698C401.191 324.7 400.033 325.18 399.18 326.035C398.326 326.889 397.846 328.048 397.845 329.256L399.642 366.916C399.643 368.124 400.123 369.283 400.977 370.137C401.831 370.992 402.988 371.472 404.195 371.474H424.744C425.951 371.472 427.109 370.992 427.962 370.137C428.816 369.283 429.296 368.124 429.297 366.916L431.095 329.256C431.093 328.048 430.613 326.889 429.759 326.035C428.906 325.18 427.748 324.7 426.541 324.698H402.398Z" fill="#3F3D56"/>
<path d="M423.007 270.49C416.281 273.29 409.229 273.176 401.889 270.49C404.024 266.841 400.832 263.982 399.193 260.298L426.601 259.483C424.505 262.683 421.413 266.465 423.007 270.49Z" fill="white"/>
<path d="M426.311 260.092L425.993 259.774L426.442 259.324L429.127 256.189L429.468 256.481L426.772 259.629L426.311 260.092Z" fill="white"/>
<path d="M397.314 258.186L397.027 258.532L399.723 260.78L400.01 260.435L397.314 258.186Z" fill="white"/>
<path d="M427.085 262.736L422.366 270.157L422.746 270.398L427.465 262.978L427.085 262.736Z" fill="white"/>
<path d="M397.81 262.736L397.43 262.977L402.148 270.398L402.527 270.157L397.81 262.736Z" fill="white"/>
<path d="M432.056 316.196H430.432C430.432 293.209 425.704 277.189 421.096 277.189L420.69 275.564C424.822 275.564 427.457 282.231 428.939 287.824C430.949 295.407 432.056 305.483 432.056 316.196Z" fill="#3F3D56"/>
<path d="M394.71 310.508H393.087C393.087 289.455 397.848 276.376 404.859 276.376L404.453 278.002C399.603 278.002 394.71 288.053 394.71 310.508Z" fill="#3F3D56"/>
<path d="M431.244 320.666C433.486 320.666 435.303 318.847 435.303 316.602C435.303 314.358 433.486 312.539 431.244 312.539C429.002 312.539 427.185 314.358 427.185 316.602C427.185 318.847 429.002 320.666 431.244 320.666Z" fill="#3F3D56"/>
<path d="M388.215 320.259H386.592C386.592 314.434 389.87 309.695 393.899 309.695V311.32C390.765 311.32 388.215 315.33 388.215 320.259Z" fill="#3F3D56"/>
<path d="M401.205 320.259H399.582C399.582 315.33 397.032 311.32 393.899 311.32V309.695C397.928 309.695 401.205 314.434 401.205 320.259Z" fill="#3F3D56"/>
<path d="M400.393 322.291C401.29 322.291 402.017 321.563 402.017 320.666C402.017 319.768 401.29 319.04 400.393 319.04C399.497 319.04 398.77 319.768 398.77 320.666C398.77 321.563 399.497 322.291 400.393 322.291Z" fill="#3F3D56"/>
<path d="M387.404 322.291C388.3 322.291 389.027 321.563 389.027 320.666C389.027 319.768 388.3 319.04 387.404 319.04C386.507 319.04 385.78 319.768 385.78 320.666C385.78 321.563 386.507 322.291 387.404 322.291Z" fill="#3F3D56"/>
<path d="M191.726 266.046L163.209 270.88C162.505 271 161.781 270.854 161.178 270.471C160.574 270.088 160.134 269.494 159.943 268.805C157.883 261.362 153.575 251.652 157.757 246.777C157.97 244.727 158.965 242.837 160.535 241.502C162.105 240.168 164.128 239.49 166.184 239.611C171.279 231.629 179.764 232.828 185.499 237.813C191.271 239.806 193.447 243.348 192.686 248.154C195.179 250.339 196.487 252.799 196.762 255.5C196.893 257.003 196.702 258.517 196.202 259.94C195.702 261.363 194.904 262.664 193.862 263.754L191.726 266.046Z" fill="#2F2E41"/>
<path d="M187.293 288.518L165.186 287.216C167.352 282.239 168.218 277.446 167.353 272.898H183.825C183.788 276.39 185.524 282.43 187.293 288.518Z" fill="#9F616A"/>
<path d="M160.682 492.991L159.775 505.399C159.734 505.961 159.814 506.525 160.008 507.053C160.203 507.582 160.508 508.062 160.903 508.463C161.299 508.864 161.775 509.175 162.3 509.376C162.826 509.578 163.388 509.664 163.95 509.63L170.317 509.244C170.612 509.226 170.899 509.143 171.159 509.002C171.418 508.86 171.643 508.663 171.818 508.424C171.993 508.186 172.113 507.911 172.17 507.621C172.227 507.331 172.219 507.032 172.147 506.745L168.613 492.594L160.682 492.991Z" fill="#E6E6E6"/>
<path d="M181.295 492.594L177.761 506.745C177.689 507.032 177.681 507.331 177.738 507.621C177.795 507.911 177.915 508.186 178.09 508.424C178.265 508.663 178.49 508.86 178.749 509.002C179.009 509.143 179.296 509.226 179.591 509.244L185.958 509.63C186.52 509.664 187.082 509.578 187.608 509.376C188.133 509.175 188.609 508.864 189.005 508.463C189.4 508.062 189.705 507.582 189.9 507.053C190.094 506.525 190.174 505.961 190.133 505.399L189.226 492.991L181.295 492.594Z" fill="#E6E6E6"/>
<path d="M189.637 494.714L181.045 493.851L172.49 402.325L169.258 493.556L160.816 493.253L146.588 366.903H200.946L189.637 494.714Z" fill="#5FD7AB"/>
<path d="M172.241 402.316L169.017 493.297L161.04 493.011L146.868 367.153H200.673L189.41 494.44L181.274 493.623L172.739 402.302L172.241 402.316Z" stroke="#1B2420" stroke-opacity="0.25" stroke-width="0.5"/>
<path d="M176.024 278.165C185.09 278.165 192.44 270.808 192.44 261.732C192.44 252.657 185.09 245.3 176.024 245.3C166.957 245.3 159.607 252.657 159.607 261.732C159.607 270.808 166.957 278.165 176.024 278.165Z" fill="#9F616A"/>
<path d="M194.526 253.882C187.863 252.721 181.312 252.561 174.944 254.035C170.887 255.364 166.016 255.241 160.598 254.146V243.064L189.846 243.592L194.526 253.882Z" fill="#2F2E41"/>
<path d="M186.949 274.918C179.767 277.908 172.237 277.786 164.398 274.918C166.679 271.021 163.27 267.969 161.519 264.035L190.788 263.164C188.549 266.582 185.247 270.619 186.949 274.918Z" fill="white"/>
<path d="M159.504 261.791L159.216 262.136L162.095 264.538L162.383 264.192L159.504 261.791Z" fill="white"/>
<path d="M191.318 266.646L186.279 274.57L186.658 274.811L191.697 266.887L191.318 266.646Z" fill="white"/>
<path d="M160.029 266.645L159.65 266.887L164.688 274.811L165.067 274.57L160.029 266.645Z" fill="white"/>
<path d="M144.813 336.68L132.242 328.87L142.963 297.441C144.158 294.198 146.448 291.475 149.437 289.743L153.049 287.65L153.363 319.356L144.813 336.68Z" fill="#5FD7AB"/>
<path d="M153.112 319.299L144.71 336.322L132.543 328.763L143.198 297.525C144.374 294.338 146.625 291.662 149.563 289.959L152.803 288.082L153.112 319.299Z" stroke="#1B2420" stroke-opacity="0.25" stroke-width="0.5"/>
<path d="M228.472 332.775L216.769 328.87L198.048 307.055L203.764 288.518L229.773 324.965L228.472 332.775Z" fill="#5FD7AB"/>
<path d="M229.509 325.026L228.274 332.445L216.913 328.655L198.328 306.997L203.854 289.075L229.509 325.026Z" stroke="#1B2420" stroke-opacity="0.25" stroke-width="0.5"/>
<path d="M189.987 264.284L189.669 263.966L190.149 263.486L193.016 260.136L193.357 260.428L190.478 263.79L189.987 264.284Z" fill="white"/>
<path d="M494 509.1H95V510H494V509.1Z" fill="#3F3D56"/>
<path d="M247.321 508.651H341.679V394.089C341.679 388.023 335.71 383.088 328.373 383.088H260.627C253.29 383.088 247.321 388.023 247.321 394.089V508.651Z" fill="#E6E6E6"/>
<path d="M254.51 503.913H334.49V406.809C334.49 401.667 329.43 397.484 323.211 397.484H265.789C259.57 397.484 254.51 401.667 254.51 406.809V503.913Z" fill="white"/>
<path d="M246.608 374.172C244.276 374.172 242.378 375.741 242.378 377.669V387.764C242.378 389.692 244.276 391.261 246.608 391.261H342.392C344.724 391.261 346.622 389.692 346.622 387.764V377.669C346.622 375.741 344.724 374.172 342.392 374.172H246.608Z" fill="#3F3D56"/>
<path d="M266.274 491.462C265.179 491.465 264.13 491.902 263.355 492.677C262.581 493.452 262.145 494.502 262.142 495.598V495.598C262.145 496.694 262.581 497.745 263.355 498.52C264.13 499.295 265.179 499.731 266.274 499.735H274.009V491.462H266.274Z" fill="#3F3D56"/>
<path d="M281.108 491.462H273.585V499.735H281.108C282.203 499.731 283.252 499.295 284.026 498.52C284.8 497.745 285.237 496.694 285.24 495.598V495.598C285.237 494.502 284.8 493.452 284.026 492.677C283.252 491.902 282.203 491.465 281.108 491.462V491.462Z" fill="#5FD7AB"/>
<path opacity="0.2" d="M283.804 492.475C284.456 493.223 284.815 494.182 284.816 495.174V495.174C284.813 496.27 284.376 497.32 283.602 498.095C282.828 498.87 281.779 499.307 280.684 499.31H273.585V499.735H281.108C282.203 499.731 283.252 499.295 284.026 498.52C284.8 497.745 285.237 496.694 285.24 495.598C285.239 495.005 285.11 494.419 284.862 493.88C284.615 493.341 284.254 492.862 283.804 492.475V492.475Z" fill="black"/>
<path d="M301.178 429.158C300.424 428.363 299.387 427.898 298.292 427.866C297.198 427.834 296.135 428.236 295.336 428.986V428.986C294.542 429.74 294.078 430.778 294.045 431.874C294.013 432.969 294.415 434.033 295.164 434.833L300.469 440.467L306.483 434.792L301.178 429.158Z" fill="#3F3D56"/>
<path d="M311.353 439.963L306.192 434.484L300.179 440.158L305.339 445.637C306.092 446.433 307.129 446.897 308.224 446.93C309.318 446.962 310.381 446.56 311.18 445.81V445.81C311.975 445.056 312.439 444.018 312.471 442.922C312.503 441.827 312.101 440.763 311.353 439.963V439.963Z" fill="#5FD7AB"/>
<path opacity="0.2" d="M312.466 442.622C312.369 443.61 311.919 444.529 311.198 445.21V445.21C310.399 445.96 309.336 446.362 308.242 446.33C307.147 446.298 306.11 445.833 305.356 445.038L300.487 439.867L300.179 440.158L305.339 445.637C306.092 446.433 307.129 446.897 308.224 446.93C309.318 446.962 310.381 446.56 311.18 445.81C311.611 445.402 311.949 444.907 312.17 444.356C312.392 443.806 312.493 443.215 312.466 442.622V442.622Z" fill="black"/>
<path d="M279.161 442.201C278.407 441.406 277.37 440.942 276.276 440.909C275.181 440.877 274.118 441.279 273.319 442.029V442.029C272.525 442.783 272.061 443.821 272.028 444.917C271.996 446.012 272.398 447.076 273.147 447.876L278.452 453.51L284.466 447.835L279.161 442.201Z" fill="#3F3D56"/>
<path d="M289.336 453.006L284.176 447.527L278.162 453.201L283.322 458.68C284.075 459.476 285.112 459.94 286.207 459.973C287.301 460.005 288.364 459.603 289.163 458.853V458.853C289.958 458.099 290.422 457.061 290.454 455.965C290.487 454.87 290.084 453.806 289.336 453.006V453.006Z" fill="#5FD7AB"/>
<path opacity="0.2" d="M290.449 455.665C290.352 456.653 289.902 457.572 289.181 458.253V458.253C288.382 459.003 287.319 459.405 286.225 459.373C285.13 459.341 284.093 458.876 283.34 458.081L278.47 452.91L278.162 453.201L283.322 458.68C284.075 459.476 285.112 459.94 286.207 459.973C287.301 460.005 288.364 459.603 289.163 458.853V458.853C289.594 458.445 289.932 457.95 290.154 457.399C290.375 456.849 290.476 456.258 290.449 455.665Z" fill="black"/>
<path d="M301.178 454.345C300.424 453.55 299.387 453.085 298.292 453.053C297.198 453.02 296.135 453.423 295.336 454.172V454.172C294.542 454.927 294.078 455.965 294.045 457.06C294.013 458.156 294.415 459.22 295.164 460.019L300.469 465.653L306.483 459.979L301.178 454.345Z" fill="#3F3D56"/>
<path d="M311.353 465.15L306.192 459.67L300.179 465.345L305.339 470.824C306.092 471.619 307.129 472.084 308.224 472.116C309.318 472.149 310.381 471.746 311.18 470.997V470.997C311.975 470.243 312.439 469.204 312.471 468.109C312.503 467.013 312.101 465.949 311.353 465.15V465.15Z" fill="#5FD7AB"/>
<path opacity="0.2" d="M312.466 467.808C312.369 468.796 311.919 469.716 311.198 470.397C310.399 471.146 309.336 471.549 308.242 471.517C307.147 471.484 306.11 471.02 305.356 470.224L300.487 465.054L300.179 465.345L305.339 470.824C306.092 471.619 307.129 472.084 308.224 472.116C309.318 472.149 310.381 471.746 311.18 470.997V470.997C311.611 470.589 311.949 470.093 312.17 469.543C312.392 468.993 312.493 468.401 312.466 467.808V467.808Z" fill="black"/>
<path d="M314.609 480.191C315.394 479.428 315.846 478.384 315.865 477.288C315.884 476.192 315.469 475.133 314.711 474.343V474.343C313.948 473.557 312.905 473.105 311.81 473.086C310.715 473.067 309.657 473.482 308.868 474.241L303.304 479.62L309.046 485.57L314.609 480.191Z" fill="#3F3D56"/>
<path d="M303.939 490.507L309.35 485.275L303.609 479.325L298.198 484.557C297.412 485.32 296.961 486.364 296.942 487.46C296.923 488.556 297.338 489.615 298.096 490.405V490.405C298.859 491.191 299.902 491.643 300.997 491.662C302.092 491.681 303.15 491.266 303.939 490.507V490.507Z" fill="#5FD7AB"/>
<path opacity="0.2" d="M301.297 491.653C300.309 491.568 299.385 491.129 298.696 490.416V490.416C297.937 489.625 297.522 488.566 297.541 487.47C297.56 486.375 298.012 485.331 298.797 484.567L303.903 479.63L303.609 479.325L298.198 484.557C297.412 485.32 296.961 486.364 296.942 487.46C296.923 488.556 297.338 489.615 298.096 490.405V490.405C298.509 490.831 299.008 491.163 299.561 491.379C300.113 491.594 300.705 491.688 301.297 491.653Z" fill="black"/>
<path d="M284.954 467.148C285.739 466.385 286.191 465.341 286.21 464.245C286.229 463.149 285.814 462.09 285.055 461.3C284.292 460.513 283.249 460.062 282.155 460.043C281.06 460.024 280.002 460.439 279.212 461.198L273.649 466.577L279.39 472.527L284.954 467.148Z" fill="#3F3D56"/>
<path d="M274.284 477.464L279.695 472.232L273.953 466.282L268.542 471.514C267.757 472.277 267.306 473.321 267.287 474.417C267.268 475.513 267.683 476.572 268.441 477.362V477.362C269.204 478.148 270.247 478.6 271.342 478.619C272.436 478.638 273.494 478.223 274.284 477.464V477.464Z" fill="#5FD7AB"/>
<path opacity="0.2" d="M271.641 478.61C270.654 478.525 269.73 478.086 269.04 477.373C268.282 476.582 267.867 475.523 267.886 474.427C267.905 473.331 268.356 472.288 269.142 471.524L274.248 466.587L273.953 466.282L268.542 471.514C267.757 472.277 267.306 473.321 267.287 474.417C267.268 475.513 267.683 476.572 268.441 477.362V477.362C268.853 477.788 269.353 478.12 269.905 478.336C270.458 478.551 271.05 478.645 271.641 478.61V478.61Z" fill="black"/>
<path d="M327.19 451.407C327.975 450.643 328.427 449.599 328.446 448.503C328.465 447.407 328.05 446.349 327.292 445.558V445.558C326.529 444.772 325.486 444.32 324.391 444.301C323.296 444.282 322.238 444.697 321.449 445.456L315.885 450.835L321.627 456.785L327.19 451.407Z" fill="#3F3D56"/>
<path d="M316.52 461.722L321.931 456.491L316.19 450.54L310.779 455.772C309.994 456.536 309.542 457.579 309.523 458.675C309.504 459.771 309.919 460.83 310.677 461.621V461.621C311.44 462.407 312.483 462.859 313.578 462.878C314.673 462.897 315.731 462.481 316.52 461.722Z" fill="#5FD7AB"/>
<path opacity="0.2" d="M313.878 462.869C312.89 462.784 311.966 462.344 311.277 461.631V461.631C310.518 460.84 310.103 459.782 310.122 458.686C310.141 457.59 310.593 456.546 311.378 455.782L316.484 450.846L316.19 450.54L310.779 455.772C309.994 456.536 309.542 457.579 309.523 458.675C309.504 459.771 309.919 460.83 310.677 461.621V461.621C311.09 462.047 311.589 462.379 312.142 462.594C312.694 462.809 313.286 462.903 313.878 462.869Z" fill="black"/>
<path d="M317.803 484.029C317.049 483.234 316.012 482.769 314.917 482.737C313.823 482.705 312.76 483.107 311.961 483.857V483.857C311.167 484.611 310.703 485.649 310.67 486.745C310.638 487.84 311.04 488.904 311.789 489.704L317.094 495.337L323.108 489.663L317.803 484.029Z" fill="#3F3D56"/>
<path d="M327.978 494.834L322.817 489.354L316.804 495.029L321.964 500.508C322.717 501.304 323.754 501.768 324.849 501.801C325.943 501.833 327.006 501.43 327.805 500.681V500.681C328.6 499.927 329.064 498.889 329.096 497.793C329.128 496.697 328.726 495.634 327.978 494.834Z" fill="#5FD7AB"/>
<path opacity="0.2" d="M329.091 497.493C328.994 498.48 328.544 499.4 327.823 500.081V500.081C327.024 500.831 325.961 501.233 324.867 501.201C323.772 501.168 322.735 500.704 321.981 499.909L317.112 494.738L316.804 495.029L321.964 500.508C322.717 501.304 323.754 501.768 324.849 501.801C325.943 501.833 327.006 501.43 327.805 500.681V500.681C328.236 500.273 328.574 499.777 328.795 499.227C329.017 498.677 329.118 498.085 329.091 497.493V497.493Z" fill="black"/>
<path d="M288.596 483.579C287.843 482.784 286.806 482.32 285.711 482.287C284.617 482.255 283.554 482.657 282.755 483.407V483.407C281.961 484.161 281.496 485.199 281.464 486.295C281.432 487.39 281.834 488.454 282.583 489.254L287.888 494.888L293.902 489.213L288.596 483.579Z" fill="#3F3D56"/>
<path d="M298.772 494.384L293.611 488.905L287.597 494.579L292.758 500.059C293.511 500.854 294.548 501.318 295.643 501.351C296.737 501.383 297.8 500.981 298.599 500.231V500.231C299.394 499.477 299.858 498.439 299.89 497.343C299.922 496.248 299.52 495.184 298.772 494.384V494.384Z" fill="#5FD7AB"/>
<path opacity="0.2" d="M299.885 497.043C299.788 498.031 299.338 498.95 298.617 499.631V499.631C297.818 500.381 296.755 500.783 295.66 500.751C294.566 500.719 293.529 500.254 292.775 499.459L287.906 494.288L287.597 494.579L292.758 500.058C293.511 500.854 294.548 501.318 295.643 501.351C296.737 501.383 297.8 500.981 298.599 500.231V500.231C299.03 499.823 299.367 499.328 299.589 498.777C299.811 498.227 299.912 497.636 299.885 497.043Z" fill="black"/>
<path d="M296.818 468.74C296.818 470.116 296.343 471.449 295.475 472.514C294.606 473.579 293.396 474.311 292.05 474.586C291.263 474.745 290.453 474.745 289.666 474.586C288.32 474.311 287.111 473.579 286.242 472.514C285.373 471.448 284.899 470.115 284.899 468.74C284.899 467.365 285.373 466.032 286.242 464.967C287.111 463.902 288.32 463.17 289.666 462.894C290.453 462.735 291.263 462.735 292.05 462.894C293.396 463.169 294.606 463.902 295.475 464.967C296.343 466.032 296.818 467.365 296.818 468.74V468.74Z" fill="#5FD7AB"/>
<path opacity="0.2" d="M292.05 462.894V474.586C291.263 474.745 290.453 474.745 289.666 474.586V462.894C290.453 462.735 291.263 462.735 292.05 462.894Z" fill="black"/>
<path d="M299.514 444.903C299.514 446.278 299.039 447.611 298.171 448.677C297.302 449.742 296.092 450.474 294.746 450.749C293.959 450.908 293.149 450.908 292.362 450.749C291.016 450.474 289.807 449.741 288.938 448.676C288.069 447.611 287.595 446.278 287.595 444.903C287.595 443.528 288.069 442.195 288.938 441.13C289.807 440.065 291.016 439.332 292.362 439.057C293.149 438.898 293.959 438.898 294.746 439.057C296.092 439.332 297.302 440.064 298.171 441.129C299.039 442.195 299.514 443.528 299.514 444.903V444.903Z" fill="#5FD7AB"/>
<path opacity="0.2" d="M294.746 439.057V450.749C293.959 450.908 293.149 450.908 292.362 450.749V439.057C293.149 438.898 293.959 438.898 294.746 439.057Z" fill="black"/>
<path d="M299.514 479.085C299.514 480.46 299.039 481.793 298.171 482.858C297.302 483.924 296.092 484.656 294.746 484.931C293.959 485.09 293.149 485.09 292.362 484.931C291.016 484.655 289.807 483.923 288.938 482.858C288.069 481.793 287.595 480.46 287.595 479.085C287.595 477.71 288.069 476.377 288.938 475.312C289.807 474.246 291.016 473.514 292.362 473.239C293.149 473.08 293.959 473.08 294.746 473.239C296.092 473.514 297.302 474.246 298.171 475.311C299.039 476.377 299.514 477.71 299.514 479.085V479.085Z" fill="#5FD7AB"/>
<path opacity="0.2" d="M294.746 473.239V484.931C293.959 485.09 293.149 485.09 292.362 484.931V473.239C293.149 473.08 293.959 473.08 294.746 473.239Z" fill="black"/>
<path d="M314.341 495.726C314.341 497.101 313.867 498.434 312.998 499.499C312.13 500.565 310.92 501.297 309.574 501.572C308.787 501.731 307.977 501.731 307.19 501.572C305.844 501.297 304.634 500.564 303.766 499.499C302.897 498.434 302.422 497.101 302.422 495.726C302.422 494.351 302.897 493.018 303.766 491.953C304.634 490.888 305.844 490.155 307.19 489.88C307.977 489.721 308.787 489.721 309.574 489.88C310.92 490.155 312.13 490.887 312.998 491.952C313.867 493.018 314.342 494.351 314.341 495.726V495.726Z" fill="#5FD7AB"/>
<path opacity="0.2" d="M309.574 489.88V501.572C308.787 501.731 307.977 501.731 307.19 501.572V489.88C307.977 489.721 308.787 489.721 309.574 489.88Z" fill="black"/>
<path d="M327.44 465.108C328.429 466.062 329.059 467.329 329.222 468.695C329.385 470.06 329.073 471.44 328.336 472.601C327.905 473.278 327.342 473.863 326.682 474.319C325.55 475.098 324.184 475.462 322.815 475.349C321.445 475.235 320.157 474.652 319.168 473.698C318.179 472.744 317.55 471.477 317.386 470.112C317.223 468.746 317.536 467.366 318.272 466.205C318.703 465.528 319.266 464.944 319.926 464.487C321.058 463.708 322.424 463.344 323.794 463.457C325.163 463.57 326.451 464.154 327.44 465.108V465.108Z" fill="#5FD7AB"/>
<path opacity="0.2" d="M319.926 464.487L328.336 472.601C327.905 473.278 327.342 473.863 326.682 474.319L318.272 466.205C318.703 465.528 319.266 464.944 319.926 464.487V464.487Z" fill="black"/>
<path d="M329.237 478.151C330.226 479.105 330.856 480.372 331.019 481.738C331.183 483.103 330.87 484.483 330.134 485.644C329.702 486.322 329.14 486.906 328.479 487.362C327.347 488.141 325.981 488.505 324.612 488.392C323.243 488.279 321.955 487.696 320.966 486.741C319.977 485.787 319.347 484.52 319.184 483.155C319.02 481.789 319.333 480.409 320.069 479.248C320.501 478.571 321.063 477.987 321.724 477.53C322.855 476.751 324.222 476.387 325.591 476.5C326.96 476.614 328.248 477.197 329.237 478.151V478.151Z" fill="#5FD7AB"/>
<path opacity="0.2" d="M321.724 477.53L330.134 485.644C329.702 486.321 329.14 486.906 328.479 487.362L320.069 479.248C320.501 478.571 321.063 477.987 321.724 477.53V477.53Z" fill="black"/>
<path d="M275.767 481.3C276.757 482.254 277.386 483.521 277.55 484.886C277.713 486.252 277.4 487.632 276.664 488.792C276.232 489.47 275.67 490.054 275.01 490.511C273.878 491.289 272.511 491.653 271.142 491.54C269.773 491.427 268.485 490.844 267.496 489.89C266.507 488.935 265.877 487.668 265.714 486.303C265.551 484.938 265.864 483.558 266.6 482.397C267.031 481.719 267.594 481.135 268.254 480.679C269.386 479.899 270.752 479.536 272.121 479.649C273.49 479.762 274.779 480.345 275.767 481.3V481.3Z" fill="#5FD7AB"/>
<path opacity="0.2" d="M268.254 480.679L276.664 488.792C276.232 489.47 275.67 490.054 275.01 490.51L266.6 482.397C267.031 481.719 267.594 481.135 268.254 480.679V480.679Z" fill="black"/>
<path opacity="0.2" d="M256.532 374.172H254.285V390.813H256.532V374.172Z" fill="black"/>
<path opacity="0.2" d="M269.562 374.172H267.316V390.813H269.562V374.172Z" fill="black"/>
<path opacity="0.2" d="M282.593 374.172H280.346V390.813H282.593V374.172Z" fill="black"/>
<path opacity="0.2" d="M295.623 374.172H293.377V390.813H295.623V374.172Z" fill="black"/>
<path opacity="0.2" d="M308.654 374.172H306.407V390.813H308.654V374.172Z" fill="black"/>
<path opacity="0.2" d="M321.684 374.172H319.438V390.813H321.684V374.172Z" fill="black"/>
<path opacity="0.2" d="M334.715 374.172H332.468V390.813H334.715V374.172Z" fill="black"/>
<path d="M199.148 351.944L197.289 335.999C197.189 327.583 198.62 319.446 202.031 311.948L203.765 288.518L184.692 280.708C184.633 281.097 184.584 281.486 184.528 281.875L175.589 286.349L166.871 284.365L166.92 281.576L149.581 289.386C155.315 316.069 152.187 343.779 142.327 376.509L165.169 382.761L165.359 371.782L185.717 370.326C185.926 373.888 186.095 377.387 186.193 380.808C197.68 385.041 198.074 384.971 208.54 378.91C204.372 370.138 201.072 361.011 199.148 351.944Z" fill="#5FD7AB"/>
<path d="M198.9 351.973L198.902 351.985L198.904 351.996C200.817 361.014 204.088 370.087 208.216 378.809C203.095 381.773 200.467 383.233 197.728 383.47C194.979 383.708 192.096 382.716 186.438 380.632C186.339 377.261 186.173 373.817 185.966 370.312L185.951 370.059L185.699 370.077L165.341 371.532L165.113 371.549L165.109 371.777L164.925 382.435L142.64 376.335C152.425 343.77 155.542 316.143 149.868 289.531L166.663 281.966L166.621 284.361L166.618 284.564L166.816 284.609L175.534 286.592L175.621 286.612L175.701 286.572L184.64 282.098L184.757 282.04L184.775 281.91C184.799 281.748 184.821 281.588 184.842 281.429C184.859 281.306 184.876 281.183 184.893 281.061L203.502 288.681L201.785 311.885C198.369 319.41 196.939 327.571 197.039 336.002L197.039 336.015L197.04 336.028L198.9 351.973Z" stroke="#1B2420" stroke-opacity="0.25" stroke-width="0.5"/>
<path d="M127.257 309.656L138.075 311.59L162.802 346.782L149.666 343.688L127.257 309.656Z" fill="#E6E6E6"/>
<path d="M125.338 309.225C125.173 309.228 125.012 309.275 124.872 309.361C124.731 309.447 124.616 309.569 124.539 309.715C124.462 309.861 124.425 310.025 124.433 310.19C124.441 310.355 124.493 310.514 124.583 310.652L147.696 345.754C147.825 345.951 148.024 346.09 148.253 346.144L159.007 348.676C159.188 348.719 159.378 348.705 159.551 348.638C159.725 348.57 159.874 348.451 159.978 348.296C160.082 348.142 160.137 347.959 160.136 347.773C160.134 347.586 160.076 347.405 159.968 347.252L134.592 311.135C134.523 311.036 134.435 310.953 134.334 310.888C134.233 310.824 134.12 310.78 134.002 310.759L125.512 309.241C125.454 309.231 125.396 309.226 125.338 309.225Z" fill="#3F3D56"/>
<path d="M139.756 334.323L140.399 340.8L150.535 339.792C151.393 339.707 152.182 339.284 152.729 338.617C153.275 337.949 153.534 337.092 153.449 336.233C153.364 335.374 152.942 334.584 152.275 334.037C151.608 333.49 150.751 333.231 149.893 333.316L139.756 334.323Z" fill="#E6E6E6"/>
<path d="M130.942 333.573C130.957 335.781 131.843 337.894 133.407 339.452C134.971 341.009 137.087 341.884 139.294 341.887H140.96L142.174 331.765L132.127 328.144L130.942 333.573Z" fill="#5FD7AB"/>
<path d="M133.583 339.274C132.072 337.77 131.214 335.731 131.192 333.599L132.31 328.476L141.902 331.932L140.738 341.637H139.294C137.154 341.634 135.101 340.785 133.583 339.274Z" stroke="#1B2420" stroke-opacity="0.25" stroke-width="0.5"/>
<path d="M191.793 349.663C191.985 350.505 192.502 351.235 193.231 351.696C193.96 352.156 194.841 352.308 195.682 352.119L205.617 349.867L204.181 343.519L194.246 345.771C193.405 345.961 192.674 346.479 192.214 347.209C191.754 347.939 191.603 348.822 191.793 349.663V349.663Z" fill="#E6E6E6"/>
<path d="M200.73 342.321L206.365 352.734C215.843 350.088 224.058 341.746 231.94 331.907L229.773 324.965L216.335 328.436L200.73 342.321Z" fill="#5FD7AB"/>
<path d="M206.49 352.439L201.044 342.376L216.456 328.663L229.605 325.266L231.662 331.855C223.858 341.582 215.77 349.767 206.49 352.439Z" stroke="#1B2420" stroke-opacity="0.25" stroke-width="0.5"/>
<path d="M460.701 339.783L427.051 353.195L424.512 354.207C424.431 354.239 424.35 354.266 424.265 354.293L415.759 356.798C414.672 357.117 413.167 355.651 412.286 354.639C411.85 354.151 411.603 353.523 411.59 352.869C411.576 352.215 411.798 351.577 412.214 351.072C412.332 350.937 412.461 350.812 412.6 350.699C412.928 350.444 413.314 350.274 413.724 350.204L422.22 348.531C422.525 348.471 422.818 348.362 423.088 348.207L427.051 345.896L447.625 333.905C448.197 333.572 448.633 333.047 448.854 332.422C449.076 331.798 449.068 331.115 448.834 330.496L444.907 320.129C444.666 319.495 444.664 318.794 444.901 318.159C445.139 317.523 445.599 316.995 446.196 316.675L452.703 313.185C453.074 312.985 453.487 312.872 453.908 312.855C454.33 312.838 454.75 312.917 455.137 313.085C455.523 313.254 455.867 313.509 456.141 313.83C456.415 314.151 456.613 314.53 456.72 314.939L462.368 336.473C462.541 337.134 462.468 337.835 462.161 338.444C461.853 339.054 461.334 339.53 460.701 339.783V339.783Z" fill="#FFB9B9"/>
<path d="M462.655 310.825C455.31 313.693 449.468 318.588 444.89 325.188L439 308C439.259 299.059 440 285.5 440.79 284.835L462.655 310.825Z" fill="#5FD7AB"/>
<path d="M440.741 285.707C440.777 285.54 440.812 285.401 440.846 285.289L462.24 310.72C455.145 313.565 449.459 318.306 444.967 324.642L439.251 307.962C439.381 303.501 439.63 297.902 439.945 293.331C440.103 291.037 440.278 289.006 440.462 287.508C440.554 286.758 440.647 286.148 440.741 285.707Z" stroke="#1B2420" stroke-opacity="0.25" stroke-width="0.5"/>
<path d="M427.949 345.259V353.408L425.116 354.537C425.025 354.572 424.935 354.602 424.84 354.633L415.345 357.429C414.132 357.785 412.451 356.149 411.468 355.019C410.982 354.475 410.706 353.774 410.691 353.043C410.676 352.313 410.924 351.602 411.388 351.038C411.519 350.887 411.664 350.747 411.819 350.621C412.185 350.336 412.616 350.146 413.073 350.069L422.558 348.201C422.898 348.135 423.225 348.012 423.526 347.84L427.949 345.259Z" fill="white"/>
<path d="M363.921 342.628L402.526 358.017L411.157 360.558C411.543 360.672 411.948 360.706 412.348 360.659C412.748 360.612 413.134 360.485 413.483 360.285C413.832 360.085 414.138 359.816 414.38 359.495C414.623 359.174 414.799 358.807 414.896 358.416C415.068 357.731 414.991 357.007 414.68 356.373C414.368 355.739 413.843 355.236 413.197 354.953L404.234 352.204L377.245 336.473L382.882 321.597L371.095 315.271L363.921 342.628Z" fill="#FFB9B9"/>
<path d="M364.262 314.587C371.607 317.455 377.449 322.35 382.028 328.949L391.5 310C390.662 301.455 388 290.5 386.127 289.281L364.262 314.587Z" fill="#5FD7AB"/>
<path d="M391.244 309.953L381.992 328.462C377.494 322.098 371.796 317.337 364.682 314.484L386.157 289.628C386.304 289.773 386.468 289.993 386.646 290.297C386.891 290.715 387.146 291.263 387.407 291.923C387.927 293.241 388.459 294.98 388.959 296.955C389.955 300.88 390.824 305.71 391.244 309.953Z" stroke="#1B2420" stroke-opacity="0.25" stroke-width="0.5"/>
</g>
<path d="M218.833 631L211.213 604.818H218.206L222.157 621.974H222.374L226.887 604.818H232.588L237.101 622.013H237.319L241.282 604.818H248.262L240.655 631H234.557L229.84 615.122H229.635L224.918 631H218.833ZM257.875 631.371C255.821 631.371 254.049 630.966 252.557 630.156C251.074 629.338 249.932 628.175 249.131 626.666C248.338 625.149 247.942 623.347 247.942 621.259C247.942 619.23 248.343 617.457 249.144 615.94C249.945 614.415 251.074 613.23 252.532 612.386C253.989 611.534 255.706 611.108 257.684 611.108C259.081 611.108 260.36 611.325 261.519 611.76C262.678 612.195 263.679 612.838 264.523 613.69C265.367 614.543 266.023 615.595 266.492 616.848C266.961 618.092 267.195 619.52 267.195 621.131V622.69H250.128V619.06H261.378C261.37 618.395 261.212 617.803 260.905 617.283C260.598 616.763 260.176 616.358 259.64 616.068C259.111 615.77 258.502 615.621 257.811 615.621C257.113 615.621 256.486 615.778 255.932 616.094C255.378 616.401 254.939 616.822 254.615 617.359C254.292 617.888 254.121 618.489 254.104 619.162V622.857C254.104 623.658 254.262 624.361 254.577 624.966C254.892 625.562 255.34 626.027 255.919 626.359C256.499 626.692 257.189 626.858 257.99 626.858C258.544 626.858 259.047 626.781 259.499 626.628C259.951 626.474 260.338 626.249 260.662 625.95C260.986 625.652 261.229 625.286 261.391 624.851L267.131 625.017C266.892 626.304 266.368 627.425 265.559 628.379C264.757 629.325 263.705 630.062 262.401 630.591C261.097 631.111 259.588 631.371 257.875 631.371ZM276.639 604.818V631H270.388V604.818H276.639ZM289.784 631.371C287.713 631.371 285.936 630.945 284.453 630.092C282.979 629.24 281.846 628.055 281.053 626.538C280.26 625.013 279.864 623.249 279.864 621.246C279.864 619.234 280.26 617.47 281.053 615.953C281.854 614.428 282.992 613.239 284.466 612.386C285.949 611.534 287.718 611.108 289.772 611.108C291.587 611.108 293.168 611.436 294.515 612.092C295.87 612.749 296.926 613.678 297.685 614.879C298.452 616.072 298.857 617.474 298.9 619.085H293.057C292.938 618.08 292.597 617.291 292.034 616.72C291.48 616.149 290.756 615.864 289.861 615.864C289.137 615.864 288.502 616.068 287.956 616.477C287.411 616.878 286.985 617.474 286.678 618.267C286.38 619.051 286.23 620.023 286.23 621.182C286.23 622.341 286.38 623.321 286.678 624.122C286.985 624.915 287.411 625.516 287.956 625.925C288.502 626.325 289.137 626.526 289.861 626.526C290.441 626.526 290.952 626.402 291.395 626.155C291.847 625.908 292.218 625.545 292.507 625.068C292.797 624.582 292.98 623.994 293.057 623.304H298.9C298.84 624.923 298.435 626.338 297.685 627.548C296.944 628.759 295.9 629.7 294.553 630.374C293.215 631.038 291.625 631.371 289.784 631.371ZM311.265 631.371C309.202 631.371 307.43 630.949 305.947 630.105C304.472 629.253 303.335 628.068 302.533 626.551C301.741 625.026 301.344 623.257 301.344 621.246C301.344 619.226 301.741 617.457 302.533 615.94C303.335 614.415 304.472 613.23 305.947 612.386C307.43 611.534 309.202 611.108 311.265 611.108C313.327 611.108 315.096 611.534 316.57 612.386C318.053 613.23 319.191 614.415 319.984 615.94C320.785 617.457 321.185 619.226 321.185 621.246C321.185 623.257 320.785 625.026 319.984 626.551C319.191 628.068 318.053 629.253 316.57 630.105C315.096 630.949 313.327 631.371 311.265 631.371ZM311.303 626.653C312.053 626.653 312.688 626.423 313.208 625.963C313.728 625.503 314.124 624.864 314.397 624.045C314.678 623.227 314.819 622.281 314.819 621.207C314.819 620.116 314.678 619.162 314.397 618.344C314.124 617.526 313.728 616.886 313.208 616.426C312.688 615.966 312.053 615.736 311.303 615.736C310.528 615.736 309.871 615.966 309.335 616.426C308.806 616.886 308.401 617.526 308.12 618.344C307.847 619.162 307.711 620.116 307.711 621.207C307.711 622.281 307.847 623.227 308.12 624.045C308.401 624.864 308.806 625.503 309.335 625.963C309.871 626.423 310.528 626.653 311.303 626.653ZM324.388 631V611.364H330.332V614.969H330.55C330.959 613.776 331.649 612.834 332.621 612.143C333.592 611.453 334.751 611.108 336.098 611.108C337.462 611.108 338.629 611.457 339.601 612.156C340.572 612.855 341.19 613.793 341.455 614.969H341.659C342.026 613.801 342.741 612.868 343.807 612.169C344.872 611.462 346.129 611.108 347.578 611.108C349.436 611.108 350.945 611.705 352.104 612.898C353.263 614.082 353.842 615.71 353.842 617.781V631H347.591V619.213C347.591 618.233 347.339 617.487 346.837 616.976C346.334 616.456 345.682 616.196 344.881 616.196C344.02 616.196 343.342 616.477 342.848 617.04C342.362 617.594 342.119 618.339 342.119 619.277V631H336.111V619.149C336.111 618.237 335.864 617.517 335.369 616.989C334.875 616.46 334.223 616.196 333.413 616.196C332.868 616.196 332.386 616.328 331.969 616.592C331.551 616.848 331.223 617.214 330.984 617.692C330.754 618.169 330.639 618.732 330.639 619.379V631H324.388ZM366.895 631.371C364.841 631.371 363.068 630.966 361.577 630.156C360.094 629.338 358.952 628.175 358.151 626.666C357.358 625.149 356.962 623.347 356.962 621.259C356.962 619.23 357.362 617.457 358.163 615.94C358.964 614.415 360.094 613.23 361.551 612.386C363.009 611.534 364.726 611.108 366.703 611.108C368.101 611.108 369.379 611.325 370.538 611.76C371.697 612.195 372.699 612.838 373.543 613.69C374.386 614.543 375.043 615.595 375.511 616.848C375.98 618.092 376.214 619.52 376.214 621.131V622.69H359.148V619.06H370.398C370.389 618.395 370.232 617.803 369.925 617.283C369.618 616.763 369.196 616.358 368.659 616.068C368.131 615.77 367.521 615.621 366.831 615.621C366.132 615.621 365.506 615.778 364.952 616.094C364.398 616.401 363.959 616.822 363.635 617.359C363.311 617.888 363.141 618.489 363.124 619.162V622.857C363.124 623.658 363.281 624.361 363.597 624.966C363.912 625.562 364.359 626.027 364.939 626.359C365.518 626.692 366.209 626.858 367.01 626.858C367.564 626.858 368.067 626.781 368.518 626.628C368.97 626.474 369.358 626.249 369.682 625.95C370.006 625.652 370.249 625.286 370.411 624.851L376.151 625.017C375.912 626.304 375.388 627.425 374.578 628.379C373.777 629.325 372.724 630.062 371.42 630.591C370.116 631.111 368.608 631.371 366.895 631.371Z" fill="#1B2420"/>
<path d="M249.311 690.18C248.231 690.18 247.364 690.04 246.711 689.76C246.071 689.48 245.604 689.087 245.311 688.58C245.031 688.073 244.891 687.473 244.891 686.78C244.891 686.167 244.977 685.68 245.151 685.32C245.337 684.947 245.564 684.673 245.831 684.5C246.111 684.327 246.397 684.213 246.691 684.16V684.08C246.424 684 246.144 683.867 245.851 683.68C245.557 683.493 245.311 683.233 245.111 682.9C244.924 682.567 244.831 682.147 244.831 681.64C244.831 681.173 244.937 680.733 245.151 680.32C245.364 679.907 245.711 679.567 246.191 679.3C246.671 679.033 247.304 678.9 248.091 678.9C248.411 678.9 248.744 678.927 249.091 678.98C249.437 679.02 249.704 679.093 249.891 679.2L249.571 680.58C249.424 680.527 249.231 680.48 248.991 680.44C248.764 680.387 248.524 680.36 248.271 680.36C247.711 680.36 247.297 680.493 247.031 680.76C246.764 681.013 246.631 681.353 246.631 681.78C246.631 682.247 246.744 682.6 246.971 682.84C247.211 683.08 247.511 683.247 247.871 683.34C248.244 683.42 248.631 683.46 249.031 683.46H249.411V684.76H249.031C248.231 684.76 247.637 684.907 247.251 685.2C246.877 685.48 246.691 685.953 246.691 686.62C246.691 687.007 246.764 687.36 246.911 687.68C247.071 688 247.337 688.253 247.711 688.44C248.097 688.627 248.631 688.72 249.311 688.72C249.991 688.72 250.517 688.627 250.891 688.44C251.277 688.253 251.551 687.987 251.711 687.64C251.871 687.28 251.951 686.853 251.951 686.36V679.04H253.731V686.24C253.731 687.64 253.371 688.647 252.651 689.26C251.944 689.873 250.831 690.18 249.311 690.18ZM245.222 677.3V676.52L246.682 675.88H253.722V677.3H245.222ZM260.746 690.2C259.959 690.2 259.279 690.067 258.706 689.8C258.146 689.52 257.712 689.1 257.406 688.54C257.112 687.98 256.966 687.253 256.966 686.36V679.04H258.746V686.26C258.746 687.06 258.946 687.667 259.346 688.08C259.759 688.493 260.352 688.7 261.126 688.7C262.059 688.7 262.779 688.4 263.286 687.8C263.806 687.2 264.066 686.393 264.066 685.38V679.04H265.846V690H264.366L264.286 688.38H264.186C263.946 688.913 263.526 689.353 262.926 689.7C262.339 690.033 261.612 690.2 260.746 690.2ZM272.971 690.2C271.905 690.2 271.065 689.953 270.451 689.46C269.851 688.953 269.425 688.273 269.171 687.42C268.931 686.567 268.811 685.627 268.811 684.6C268.811 683.467 268.925 682.533 269.151 681.8C269.391 681.053 269.725 680.467 270.151 680.04C270.591 679.6 271.111 679.293 271.711 679.12C272.325 678.933 272.998 678.84 273.731 678.84C274.798 678.84 275.665 679 276.331 679.32C277.011 679.627 277.511 680.067 277.831 680.64C278.151 681.213 278.311 681.9 278.311 682.7V690H276.551V682.86C276.551 682.033 276.345 681.407 275.931 680.98C275.518 680.54 274.805 680.32 273.791 680.32C273.178 680.32 272.625 680.433 272.131 680.66C271.651 680.887 271.271 681.307 270.991 681.92C270.725 682.533 270.591 683.433 270.591 684.62C270.591 685.393 270.665 686.093 270.811 686.72C270.971 687.333 271.245 687.82 271.631 688.18C272.018 688.54 272.558 688.72 273.251 688.72C273.451 688.72 273.638 688.707 273.811 688.68C273.985 688.653 274.151 688.613 274.311 688.56L274.491 689.94C274.278 690.033 274.031 690.1 273.751 690.14C273.485 690.18 273.225 690.2 272.971 690.2ZM269.656 677.3V676.52L271.116 675.88H278.156V677.3H269.656ZM276.496 676.52V674.26H278.176V676.52H276.496ZM285.436 690.2C284.316 690.2 283.449 689.947 282.836 689.44C282.222 688.92 281.796 688.22 281.556 687.34C281.316 686.447 281.196 685.433 281.196 684.3C281.196 682.993 281.316 681.94 281.556 681.14C281.809 680.34 282.176 679.76 282.656 679.4C283.136 679.027 283.722 678.84 284.416 678.84C284.882 678.84 285.276 678.92 285.596 679.08C285.929 679.24 286.162 679.507 286.296 679.88H286.376C286.509 679.493 286.749 679.227 287.096 679.08C287.442 678.92 287.849 678.84 288.316 678.84C289.182 678.84 289.849 679.073 290.316 679.54C290.796 679.993 291.036 680.693 291.036 681.64V690H289.256V681.66C289.256 681.14 289.142 680.787 288.916 680.6C288.689 680.413 288.402 680.32 288.056 680.32C287.669 680.32 287.382 680.413 287.196 680.6C287.022 680.787 286.916 681.093 286.876 681.52H285.756C285.702 681.053 285.562 680.74 285.336 680.58C285.109 680.407 284.856 680.32 284.576 680.32C284.042 680.32 283.642 680.633 283.376 681.26C283.109 681.873 282.976 682.893 282.976 684.32C282.976 685.24 283.042 686.027 283.176 686.68C283.322 687.333 283.589 687.84 283.976 688.2C284.362 688.547 284.922 688.72 285.656 688.72C285.922 688.72 286.142 688.707 286.316 688.68C286.489 688.653 286.656 688.62 286.816 688.58L286.996 689.94C286.796 690.033 286.556 690.1 286.276 690.14C285.996 690.18 285.716 690.2 285.436 690.2ZM285.212 677.3V676.42C285.479 676.367 285.752 676.293 286.032 676.2C286.312 676.093 286.546 675.96 286.732 675.8C286.919 675.627 287.012 675.42 287.012 675.18C287.012 675.02 286.966 674.887 286.872 674.78C286.766 674.66 286.606 674.6 286.392 674.6C286.259 674.6 286.126 674.627 285.992 674.68C285.846 674.733 285.719 674.78 285.612 674.82L285.212 673.72C285.479 673.507 285.779 673.367 286.112 673.3C286.432 673.233 286.692 673.2 286.892 673.2C287.426 673.2 287.846 673.347 288.152 673.64C288.446 673.933 288.592 674.307 288.592 674.76C288.592 675.133 288.499 675.46 288.312 675.74C288.112 676.007 287.886 676.22 287.632 676.38L287.432 675.9H291.412V677.3H285.212ZM298.15 690.2C296.71 690.2 295.63 689.827 294.91 689.08C294.204 688.32 293.85 687.133 293.85 685.52C293.85 685.253 293.857 684.967 293.87 684.66C293.897 684.34 293.924 684.027 293.95 683.72H298.15V685.12H295.63V685.52C295.63 686.36 295.724 687.02 295.91 687.5C296.097 687.967 296.37 688.293 296.73 688.48C297.104 688.667 297.564 688.76 298.11 688.76C298.71 688.76 299.23 688.647 299.67 688.42C300.11 688.193 300.45 687.78 300.69 687.18C300.93 686.58 301.05 685.72 301.05 684.6C301.05 683.613 300.944 682.807 300.73 682.18C300.517 681.553 300.164 681.087 299.67 680.78C299.19 680.473 298.537 680.32 297.71 680.32C297.284 680.32 296.87 680.36 296.47 680.44C296.07 680.507 295.684 680.613 295.31 680.76C294.937 680.893 294.57 681.067 294.21 681.28V679.62C294.477 679.473 294.804 679.347 295.19 679.24C295.577 679.12 296.004 679.027 296.47 678.96C296.937 678.88 297.424 678.84 297.93 678.84C299.104 678.84 300.05 679.08 300.77 679.56C301.504 680.027 302.037 680.693 302.37 681.56C302.704 682.413 302.87 683.427 302.87 684.6C302.87 685.773 302.717 686.78 302.41 687.62C302.104 688.46 301.604 689.1 300.91 689.54C300.23 689.98 299.31 690.2 298.15 690.2ZM309.535 690.2C308.748 690.2 308.068 690.067 307.495 689.8C306.935 689.52 306.501 689.1 306.195 688.54C305.901 687.98 305.755 687.253 305.755 686.36V679.04H307.535V686.26C307.535 687.06 307.735 687.667 308.135 688.08C308.548 688.493 309.141 688.7 309.915 688.7C310.848 688.7 311.568 688.4 312.075 687.8C312.595 687.2 312.855 686.393 312.855 685.38V679.04H314.635V690H313.155L313.075 688.38H312.975C312.735 688.913 312.315 689.353 311.715 689.7C311.128 690.033 310.401 690.2 309.535 690.2ZM321.1 690.2C320.314 690.2 319.58 690.127 318.9 689.98C318.234 689.82 317.667 689.633 317.2 689.42L317.72 687.98C318 688.087 318.32 688.2 318.68 688.32C319.04 688.44 319.427 688.54 319.84 688.62C320.267 688.687 320.7 688.72 321.14 688.72C321.847 688.72 322.434 688.587 322.9 688.32C323.367 688.053 323.6 687.667 323.6 687.16C323.6 686.853 323.514 686.593 323.34 686.38C323.18 686.153 322.927 685.947 322.58 685.76C322.234 685.573 321.787 685.393 321.24 685.22C320.4 684.953 319.687 684.673 319.1 684.38C318.527 684.073 318.087 683.713 317.78 683.3C317.487 682.873 317.34 682.347 317.34 681.72C317.34 681.16 317.487 680.667 317.78 680.24C318.087 679.8 318.554 679.46 319.18 679.22C319.82 678.967 320.634 678.84 321.62 678.84C322.26 678.84 322.86 678.9 323.42 679.02C323.994 679.127 324.44 679.28 324.76 679.48V680.98C324.534 680.873 324.247 680.767 323.9 680.66C323.567 680.553 323.2 680.467 322.8 680.4C322.4 680.333 321.987 680.3 321.56 680.3C320.667 680.3 320.034 680.44 319.66 680.72C319.3 680.987 319.12 681.293 319.12 681.64C319.12 681.933 319.2 682.18 319.36 682.38C319.534 682.58 319.82 682.773 320.22 682.96C320.634 683.147 321.187 683.36 321.88 683.6C322.52 683.813 323.107 684.06 323.64 684.34C324.174 684.62 324.594 684.973 324.9 685.4C325.22 685.813 325.38 686.347 325.38 687C325.38 687.56 325.24 688.087 324.96 688.58C324.694 689.06 324.247 689.453 323.62 689.76C322.994 690.053 322.154 690.2 321.1 690.2ZM322.823 677.3C322.263 677.3 321.816 677.22 321.483 677.06C321.149 676.9 320.909 676.693 320.763 676.44C320.603 676.187 320.523 675.92 320.523 675.64C320.523 675.44 320.556 675.227 320.623 675C320.676 674.76 320.749 674.567 320.843 674.42L322.343 674.68C322.316 674.733 322.289 674.827 322.263 674.96C322.236 675.08 322.223 675.193 322.223 675.3C322.223 675.473 322.276 675.627 322.383 675.76C322.489 675.88 322.669 675.94 322.923 675.94H327.983V677.3H322.823ZM332.186 690.2C330.613 690.2 329.486 689.84 328.806 689.12C328.126 688.4 327.786 687.373 327.786 686.04V679.04H329.566V686.06C329.566 686.953 329.779 687.62 330.206 688.06C330.633 688.5 331.293 688.72 332.186 688.72C333.093 688.72 333.759 688.5 334.186 688.06C334.626 687.62 334.846 686.953 334.846 686.06V679.04H336.626V686.04C336.626 687.373 336.279 688.4 335.586 689.12C334.906 689.84 333.773 690.2 332.186 690.2ZM166.905 714V710.2C166.905 709.36 167.091 708.753 167.465 708.38C167.838 707.993 168.311 707.727 168.885 707.58L168.905 707.52L166.705 706.68V706.02C166.705 705.473 166.885 704.96 167.245 704.48C167.605 703.987 168.118 703.593 168.785 703.3C169.465 702.993 170.271 702.84 171.205 702.84C172.018 702.84 172.771 702.973 173.465 703.24C174.158 703.493 174.711 703.9 175.125 704.46C175.551 705.007 175.765 705.727 175.765 706.62V714H173.985V706.8C173.985 705.907 173.711 705.273 173.165 704.9C172.631 704.513 171.971 704.32 171.185 704.32C170.371 704.32 169.725 704.493 169.245 704.84C168.765 705.173 168.525 705.6 168.525 706.12L170.685 707.2L170.525 708.16C170.031 708.16 169.598 708.327 169.225 708.66C168.865 708.98 168.685 709.493 168.685 710.2V714H166.905ZM182.077 714.2C181.29 714.2 180.557 714.127 179.877 713.98C179.21 713.82 178.644 713.633 178.177 713.42L178.697 711.98C178.977 712.087 179.297 712.2 179.657 712.32C180.017 712.44 180.404 712.54 180.817 712.62C181.244 712.687 181.677 712.72 182.117 712.72C182.824 712.72 183.41 712.587 183.877 712.32C184.344 712.053 184.577 711.667 184.577 711.16C184.577 710.853 184.49 710.593 184.317 710.38C184.157 710.153 183.904 709.947 183.557 709.76C183.21 709.573 182.764 709.393 182.217 709.22C181.377 708.953 180.664 708.673 180.077 708.38C179.504 708.073 179.064 707.713 178.757 707.3C178.464 706.873 178.317 706.347 178.317 705.72C178.317 705.16 178.464 704.667 178.757 704.24C179.064 703.8 179.53 703.46 180.157 703.22C180.797 702.967 181.61 702.84 182.597 702.84C183.237 702.84 183.837 702.9 184.397 703.02C184.97 703.127 185.417 703.28 185.737 703.48V704.98C185.51 704.873 185.224 704.767 184.877 704.66C184.544 704.553 184.177 704.467 183.777 704.4C183.377 704.333 182.964 704.3 182.537 704.3C181.644 704.3 181.01 704.44 180.637 704.72C180.277 704.987 180.097 705.293 180.097 705.64C180.097 705.933 180.177 706.18 180.337 706.38C180.51 706.58 180.797 706.773 181.197 706.96C181.61 707.147 182.164 707.36 182.857 707.6C183.497 707.813 184.084 708.06 184.617 708.34C185.15 708.62 185.57 708.973 185.877 709.4C186.197 709.813 186.357 710.347 186.357 711C186.357 711.56 186.217 712.087 185.937 712.58C185.67 713.06 185.224 713.453 184.597 713.76C183.97 714.053 183.13 714.2 182.077 714.2ZM183.763 719.22V717.1C183.763 716.767 183.616 716.6 183.323 716.6C183.256 716.6 183.189 716.607 183.123 716.62C183.043 716.633 182.969 716.653 182.903 716.68L182.763 715.48C182.963 715.413 183.183 715.36 183.423 715.32C183.649 715.293 183.836 715.28 183.983 715.28C184.449 715.28 184.796 715.387 185.023 715.6C185.236 715.827 185.343 716.133 185.343 716.52V719.22H183.763ZM191.023 714.2C190.649 714.2 190.289 714.14 189.943 714.02C189.609 713.9 189.336 713.687 189.123 713.38C188.923 713.073 188.823 712.647 188.823 712.1V710.16C188.823 709.333 188.996 708.733 189.343 708.36C189.703 707.987 190.169 707.727 190.743 707.58L190.763 707.52L188.463 706.68V706.02C188.463 705.433 188.636 704.9 188.983 704.42C189.343 703.94 189.843 703.56 190.483 703.28C191.136 702.987 191.896 702.84 192.763 702.84C193.496 702.84 194.189 702.96 194.843 703.2C195.509 703.44 196.049 703.84 196.463 704.4C196.876 704.947 197.083 705.68 197.083 706.6V710.42C197.083 711.22 197.263 711.8 197.623 712.16C197.996 712.52 198.489 712.7 199.103 712.7C199.636 712.7 200.103 712.567 200.503 712.3C200.903 712.02 201.216 711.64 201.443 711.16C201.669 710.667 201.783 710.093 201.783 709.44V703.04H203.563V714H202.103L202.003 712.26H201.903C201.676 712.873 201.269 713.353 200.683 713.7C200.109 714.033 199.463 714.2 198.743 714.2C197.729 714.2 196.903 713.92 196.263 713.36C195.623 712.8 195.303 711.867 195.303 710.56V706.78C195.303 706.14 195.183 705.64 194.943 705.28C194.703 704.92 194.383 704.673 193.983 704.54C193.596 704.393 193.183 704.32 192.743 704.32C192.036 704.32 191.449 704.473 190.983 704.78C190.529 705.087 190.296 705.533 190.283 706.12L192.563 707.2L192.403 708.16C191.909 708.16 191.483 708.313 191.123 708.62C190.776 708.927 190.603 709.433 190.603 710.14V711.9C190.603 712.193 190.669 712.407 190.803 712.54C190.936 712.673 191.149 712.74 191.443 712.74C191.576 712.74 191.703 712.733 191.823 712.72C191.956 712.693 192.076 712.66 192.183 712.62L192.443 713.9C192.189 714.02 191.943 714.1 191.703 714.14C191.476 714.18 191.249 714.2 191.023 714.2ZM210.046 714V706.22C210.046 705.567 209.893 705.087 209.586 704.78C209.293 704.473 208.793 704.32 208.086 704.32C207.606 704.32 207.153 704.387 206.726 704.52C206.313 704.64 205.913 704.813 205.526 705.04V703.44C205.793 703.307 206.173 703.173 206.666 703.04C207.16 702.907 207.746 702.84 208.426 702.84C209.12 702.84 209.72 702.94 210.226 703.14C210.733 703.34 211.126 703.673 211.406 704.14C211.686 704.593 211.826 705.2 211.826 705.96V714H210.046ZM217.551 714.2C217.191 714.2 216.845 714.14 216.511 714.02C216.178 713.9 215.905 713.687 215.691 713.38C215.478 713.073 215.371 712.647 215.371 712.1V703.04H217.151V711.88C217.151 712.187 217.218 712.407 217.351 712.54C217.485 712.673 217.698 712.74 217.991 712.74C218.111 712.74 218.238 712.727 218.371 712.7C218.505 712.673 218.631 712.64 218.751 712.6L218.991 713.9C218.738 714.02 218.491 714.1 218.251 714.14C218.011 714.18 217.778 714.2 217.551 714.2ZM224.595 714.2C223.342 714.2 222.369 713.9 221.675 713.3C220.995 712.687 220.655 711.773 220.655 710.56V709.34C220.655 708.673 220.749 708.147 220.935 707.76C221.122 707.373 221.322 707.04 221.535 706.76C221.762 706.453 221.955 706.187 222.115 705.96C222.289 705.733 222.375 705.46 222.375 705.14C222.375 704.86 222.302 704.66 222.155 704.54C222.022 704.42 221.849 704.36 221.635 704.36C221.475 704.36 221.302 704.387 221.115 704.44C220.942 704.493 220.769 704.56 220.595 704.64L220.195 703.36C220.435 703.2 220.729 703.087 221.075 703.02C221.435 702.953 221.749 702.92 222.015 702.92C222.509 702.92 222.902 703.007 223.195 703.18C223.502 703.353 223.722 703.593 223.855 703.9C223.989 704.193 224.055 704.54 224.055 704.94C224.055 705.433 223.969 705.84 223.795 706.16C223.635 706.48 223.442 706.793 223.215 707.1C222.989 707.433 222.802 707.753 222.655 708.06C222.509 708.367 222.435 708.767 222.435 709.26V710.44C222.435 711.053 222.535 711.527 222.735 711.86C222.935 712.193 223.202 712.427 223.535 712.56C223.869 712.68 224.222 712.74 224.595 712.74C225.262 712.74 225.769 712.587 226.115 712.28C226.475 711.96 226.655 711.473 226.655 710.82V703.04H228.435V710.92C228.435 711.947 228.109 712.753 227.455 713.34C226.815 713.913 225.862 714.2 224.595 714.2ZM222.829 701.3V700.42C223.096 700.367 223.369 700.293 223.649 700.2C223.929 700.093 224.163 699.96 224.349 699.8C224.536 699.627 224.629 699.42 224.629 699.18C224.629 699.02 224.583 698.887 224.489 698.78C224.383 698.66 224.223 698.6 224.009 698.6C223.876 698.6 223.743 698.627 223.609 698.68C223.463 698.733 223.336 698.78 223.229 698.82L222.829 697.72C223.096 697.507 223.396 697.367 223.729 697.3C224.049 697.233 224.309 697.2 224.509 697.2C225.043 697.2 225.463 697.347 225.769 697.64C226.063 697.933 226.209 698.307 226.209 698.76C226.209 699.133 226.116 699.46 225.929 699.74C225.729 700.007 225.503 700.22 225.249 700.38L225.049 699.9H229.029V701.3H222.829ZM234.773 714V706.22C234.773 705.567 234.619 705.087 234.313 704.78C234.019 704.473 233.519 704.32 232.813 704.32C232.333 704.32 231.879 704.387 231.453 704.52C231.039 704.64 230.639 704.813 230.253 705.04V703.44C230.519 703.307 230.899 703.173 231.393 703.04C231.886 702.907 232.473 702.84 233.153 702.84C233.846 702.84 234.446 702.94 234.953 703.14C235.459 703.34 235.853 703.673 236.133 704.14C236.413 704.593 236.553 705.2 236.553 705.96V714H234.773ZM246.218 714V706.7C246.218 705.833 246.018 705.22 245.618 704.86C245.231 704.487 244.578 704.3 243.658 704.3C242.991 704.3 242.351 704.393 241.738 704.58C241.138 704.753 240.564 705 240.018 705.32V703.66C240.404 703.46 240.924 703.273 241.578 703.1C242.244 702.927 242.991 702.84 243.818 702.84C244.524 702.84 245.124 702.92 245.618 703.08C246.124 703.24 246.498 703.533 246.738 703.96C247.204 704.173 247.524 704.507 247.698 704.96C247.884 705.413 247.978 705.96 247.978 706.6V714H246.218ZM242.778 714.2C241.604 714.2 240.704 713.933 240.078 713.4C239.464 712.853 239.158 712.073 239.158 711.06C239.158 709.953 239.558 709.1 240.358 708.5C241.171 707.9 242.484 707.547 244.298 707.44L246.578 707.3V708.78L244.538 708.92C243.178 709.013 242.238 709.227 241.718 709.56C241.211 709.893 240.958 710.38 240.958 711.02C240.958 711.62 241.144 712.06 241.518 712.34C241.904 712.62 242.438 712.76 243.118 712.76C243.344 712.76 243.551 712.747 243.738 712.72C243.924 712.68 244.104 712.633 244.278 712.58L244.558 713.92C244.304 714.013 244.024 714.08 243.718 714.12C243.424 714.173 243.111 714.2 242.778 714.2ZM246.678 704.58L245.678 703.64C246.024 703.587 246.351 703.453 246.658 703.24C246.964 703.027 247.118 702.72 247.118 702.32H248.858C248.858 702.733 248.758 703.1 248.558 703.42C248.371 703.727 248.111 703.98 247.778 704.18C247.444 704.367 247.078 704.5 246.678 704.58ZM245.38 719.3C244.526 719.3 243.88 719.127 243.44 718.78C242.986 718.447 242.76 717.967 242.76 717.34V717C242.76 716.773 242.706 716.633 242.6 716.58C242.48 716.54 242.32 716.547 242.12 716.6L242 715.4C242.186 715.347 242.373 715.313 242.56 715.3C242.733 715.287 242.866 715.28 242.96 715.28C243.44 715.28 243.786 715.387 244 715.6C244.2 715.813 244.3 716.113 244.3 716.5V717.18C244.3 717.433 244.38 717.647 244.54 717.82C244.7 717.993 244.973 718.08 245.36 718.08C245.76 718.08 246.04 717.993 246.2 717.82C246.346 717.647 246.42 717.433 246.42 717.18V715.34H247.98V717.28C247.98 717.933 247.76 718.433 247.32 718.78C246.88 719.127 246.233 719.3 245.38 719.3ZM246.2 701.3V697.08H247.96V701.3H246.2ZM254.323 714.2C253.536 714.2 252.803 714.127 252.123 713.98C251.456 713.82 250.89 713.633 250.423 713.42L250.943 711.98C251.223 712.087 251.543 712.2 251.903 712.32C252.263 712.44 252.65 712.54 253.063 712.62C253.49 712.687 253.923 712.72 254.363 712.72C255.07 712.72 255.656 712.587 256.123 712.32C256.59 712.053 256.823 711.667 256.823 711.16C256.823 710.853 256.736 710.593 256.563 710.38C256.403 710.153 256.15 709.947 255.803 709.76C255.456 709.573 255.01 709.393 254.463 709.22C253.623 708.953 252.91 708.673 252.323 708.38C251.75 708.073 251.31 707.713 251.003 707.3C250.71 706.873 250.563 706.347 250.563 705.72C250.563 705.16 250.71 704.667 251.003 704.24C251.31 703.8 251.776 703.46 252.403 703.22C253.043 702.967 253.856 702.84 254.843 702.84C255.483 702.84 256.083 702.9 256.643 703.02C257.216 703.127 257.663 703.28 257.983 703.48V704.98C257.756 704.873 257.47 704.767 257.123 704.66C256.79 704.553 256.423 704.467 256.023 704.4C255.623 704.333 255.21 704.3 254.783 704.3C253.89 704.3 253.256 704.44 252.883 704.72C252.523 704.987 252.343 705.293 252.343 705.64C252.343 705.933 252.423 706.18 252.583 706.38C252.756 706.58 253.043 706.773 253.443 706.96C253.856 707.147 254.41 707.36 255.103 707.6C255.743 707.813 256.33 708.06 256.863 708.34C257.396 708.62 257.816 708.973 258.123 709.4C258.443 709.813 258.603 710.347 258.603 711C258.603 711.56 258.463 712.087 258.183 712.58C257.916 713.06 257.47 713.453 256.843 713.76C256.216 714.053 255.376 714.2 254.323 714.2ZM262.449 707.12C261.902 707.12 261.455 707.04 261.109 706.88C260.775 706.707 260.535 706.493 260.389 706.24C260.242 705.973 260.169 705.693 260.169 705.4C260.169 705.2 260.195 704.993 260.249 704.78C260.315 704.567 260.395 704.387 260.489 704.24L261.989 704.48C261.962 704.547 261.929 704.64 261.889 704.76C261.862 704.88 261.849 705 261.849 705.12C261.849 705.293 261.895 705.44 261.989 705.56C262.082 705.667 262.255 705.72 262.509 705.72H265.369V707.12H262.449ZM262.449 712.72C261.902 712.72 261.455 712.64 261.109 712.48C260.775 712.307 260.535 712.093 260.389 711.84C260.242 711.573 260.169 711.293 260.169 711C260.169 710.8 260.195 710.593 260.249 710.38C260.315 710.167 260.395 709.987 260.489 709.84L261.989 710.08C261.962 710.147 261.929 710.24 261.889 710.36C261.862 710.48 261.849 710.6 261.849 710.72C261.849 710.893 261.895 711.04 261.989 711.16C262.082 711.267 262.255 711.32 262.509 711.32H265.369V712.72H262.449ZM272.166 714.2C270.593 714.2 269.466 713.84 268.786 713.12C268.106 712.4 267.766 711.373 267.766 710.04V703.04H269.546V710.06C269.546 710.953 269.76 711.62 270.186 712.06C270.613 712.5 271.273 712.72 272.166 712.72C273.073 712.72 273.74 712.5 274.166 712.06C274.606 711.62 274.826 710.953 274.826 710.06V703.04H276.606V710.04C276.606 711.373 276.26 712.4 275.566 713.12C274.886 713.84 273.753 714.2 272.166 714.2ZM284.237 714.2C282.663 714.2 281.537 713.84 280.857 713.12C280.177 712.4 279.837 711.373 279.837 710.04V703.04H281.617V710.06C281.617 710.953 281.83 711.62 282.257 712.06C282.683 712.5 283.343 712.72 284.237 712.72C285.143 712.72 285.81 712.5 286.237 712.06C286.677 711.62 286.897 710.953 286.897 710.06V703.04H288.677V710.04C288.677 711.373 288.33 712.4 287.637 713.12C286.957 713.84 285.823 714.2 284.237 714.2ZM294.387 714.2C294.027 714.2 293.68 714.14 293.347 714.02C293.014 713.9 292.74 713.687 292.527 713.38C292.314 713.073 292.207 712.647 292.207 712.1V703.04H293.987V711.88C293.987 712.187 294.054 712.407 294.187 712.54C294.32 712.673 294.534 712.74 294.827 712.74C294.947 712.74 295.074 712.727 295.207 712.7C295.34 712.673 295.467 712.64 295.587 712.6L295.827 713.9C295.574 714.02 295.327 714.1 295.087 714.14C294.847 714.18 294.614 714.2 294.387 714.2ZM298.614 714L296.634 703.04H298.454L299.234 707.8C299.301 708.187 299.368 708.687 299.434 709.3C299.501 709.913 299.581 710.64 299.674 711.48H299.734C299.854 710.907 299.968 710.393 300.074 709.94C300.194 709.487 300.301 709.08 300.394 708.72C300.501 708.347 300.594 708.02 300.674 707.74L302.014 703.04H303.474L304.834 707.74C304.914 708.02 305.001 708.347 305.094 708.72C305.201 709.08 305.308 709.487 305.414 709.94C305.534 710.393 305.654 710.907 305.774 711.48H305.854C305.934 710.64 306.008 709.913 306.074 709.3C306.141 708.687 306.208 708.187 306.274 707.8L307.074 703.04H308.894L306.914 714H305.174L303.334 708.04C303.241 707.707 303.148 707.36 303.054 707C302.974 706.64 302.894 706.167 302.814 705.58H302.734C302.681 705.967 302.621 706.307 302.554 706.6C302.488 706.893 302.421 707.153 302.354 707.38C302.288 707.607 302.221 707.827 302.154 708.04L300.354 714H298.614ZM299.558 701.3V700.52L301.018 699.88H308.058V701.3H299.558ZM303.678 700.52V698.26H305.158V700.52H303.678ZM306.598 700.52V698.26H308.058V700.52H306.598ZM305.069 697.08V693.82H306.769V697.08H305.069ZM315.221 714.2C313.781 714.2 312.701 713.827 311.981 713.08C311.274 712.32 310.921 711.133 310.921 709.52C310.921 709.253 310.927 708.967 310.941 708.66C310.967 708.34 310.994 708.027 311.021 707.72H315.221V709.12H312.701V709.52C312.701 710.36 312.794 711.02 312.981 711.5C313.167 711.967 313.441 712.293 313.801 712.48C314.174 712.667 314.634 712.76 315.181 712.76C315.781 712.76 316.301 712.647 316.741 712.42C317.181 712.193 317.521 711.78 317.761 711.18C318.001 710.58 318.121 709.72 318.121 708.6C318.121 707.613 318.014 706.807 317.801 706.18C317.587 705.553 317.234 705.087 316.741 704.78C316.261 704.473 315.607 704.32 314.781 704.32C314.354 704.32 313.941 704.36 313.541 704.44C313.141 704.507 312.754 704.613 312.381 704.76C312.007 704.893 311.641 705.067 311.281 705.28V703.62C311.547 703.473 311.874 703.347 312.261 703.24C312.647 703.12 313.074 703.027 313.541 702.96C314.007 702.88 314.494 702.84 315.001 702.84C316.174 702.84 317.121 703.08 317.841 703.56C318.574 704.027 319.107 704.693 319.441 705.56C319.774 706.413 319.941 707.427 319.941 708.6C319.941 709.773 319.787 710.78 319.481 711.62C319.174 712.46 318.674 713.1 317.981 713.54C317.301 713.98 316.381 714.2 315.221 714.2ZM325.305 714.2C324.945 714.2 324.598 714.14 324.265 714.02C323.932 713.9 323.658 713.687 323.445 713.38C323.232 713.073 323.125 712.647 323.125 712.1V703.04H324.905V711.88C324.905 712.187 324.972 712.407 325.105 712.54C325.238 712.673 325.452 712.74 325.745 712.74C325.865 712.74 325.992 712.727 326.125 712.7C326.258 712.673 326.385 712.64 326.505 712.6L326.745 713.9C326.492 714.02 326.245 714.1 326.005 714.14C325.765 714.18 325.532 714.2 325.305 714.2ZM331.608 714.2C330.822 714.2 330.088 714.127 329.408 713.98C328.742 713.82 328.175 713.633 327.708 713.42L328.228 711.98C328.508 712.087 328.828 712.2 329.188 712.32C329.548 712.44 329.935 712.54 330.348 712.62C330.775 712.687 331.208 712.72 331.648 712.72C332.355 712.72 332.942 712.587 333.408 712.32C333.875 712.053 334.108 711.667 334.108 711.16C334.108 710.853 334.022 710.593 333.848 710.38C333.688 710.153 333.435 709.947 333.088 709.76C332.742 709.573 332.295 709.393 331.748 709.22C330.908 708.953 330.195 708.673 329.608 708.38C329.035 708.073 328.595 707.713 328.288 707.3C327.995 706.873 327.848 706.347 327.848 705.72C327.848 705.16 327.995 704.667 328.288 704.24C328.595 703.8 329.062 703.46 329.688 703.22C330.328 702.967 331.142 702.84 332.128 702.84C332.768 702.84 333.368 702.9 333.928 703.02C334.502 703.127 334.948 703.28 335.268 703.48V704.98C335.042 704.873 334.755 704.767 334.408 704.66C334.075 704.553 333.708 704.467 333.308 704.4C332.908 704.333 332.495 704.3 332.068 704.3C331.175 704.3 330.542 704.44 330.168 704.72C329.808 704.987 329.628 705.293 329.628 705.64C329.628 705.933 329.708 706.18 329.868 706.38C330.042 706.58 330.328 706.773 330.728 706.96C331.142 707.147 331.695 707.36 332.388 707.6C333.028 707.813 333.615 708.06 334.148 708.34C334.682 708.62 335.102 708.973 335.408 709.4C335.728 709.813 335.888 710.347 335.888 711C335.888 711.56 335.748 712.087 335.468 712.58C335.202 713.06 334.755 713.453 334.128 713.76C333.502 714.053 332.662 714.2 331.608 714.2ZM327.37 701.3V700.52L328.83 699.88H335.87V701.3H327.37ZM334.19 698.08V694.82H335.89V698.08H334.19ZM343.574 714.2C342.72 714.2 341.98 714.033 341.354 713.7C340.74 713.353 340.32 712.873 340.094 712.26H340.014L339.914 714H338.454V703.04H340.234V709.38C340.234 710.047 340.347 710.633 340.574 711.14C340.814 711.633 341.154 712.02 341.594 712.3C342.047 712.567 342.587 712.7 343.214 712.7C344 712.7 344.587 712.493 344.974 712.08C345.36 711.667 345.554 711.06 345.554 710.26V703.04H347.334V710.38C347.334 711.26 347.18 711.98 346.874 712.54C346.58 713.1 346.154 713.52 345.594 713.8C345.034 714.067 344.36 714.2 343.574 714.2ZM354.459 714.2C353.339 714.2 352.472 713.947 351.859 713.44C351.246 712.92 350.819 712.22 350.579 711.34C350.339 710.447 350.219 709.433 350.219 708.3C350.219 706.993 350.339 705.94 350.579 705.14C350.832 704.34 351.199 703.76 351.679 703.4C352.159 703.027 352.746 702.84 353.439 702.84C353.906 702.84 354.299 702.92 354.619 703.08C354.952 703.24 355.186 703.507 355.319 703.88H355.399C355.532 703.493 355.772 703.227 356.119 703.08C356.466 702.92 356.872 702.84 357.339 702.84C358.206 702.84 358.872 703.073 359.339 703.54C359.819 703.993 360.059 704.693 360.059 705.64V714H358.279V705.66C358.279 705.14 358.166 704.787 357.939 704.6C357.712 704.413 357.426 704.32 357.079 704.32C356.692 704.32 356.406 704.413 356.219 704.6C356.046 704.787 355.939 705.093 355.899 705.52H354.779C354.726 705.053 354.586 704.74 354.359 704.58C354.132 704.407 353.879 704.32 353.599 704.32C353.066 704.32 352.666 704.633 352.399 705.26C352.132 705.873 351.999 706.893 351.999 708.32C351.999 709.24 352.066 710.027 352.199 710.68C352.346 711.333 352.612 711.84 352.999 712.2C353.386 712.547 353.946 712.72 354.679 712.72C354.946 712.72 355.166 712.707 355.339 712.68C355.512 712.653 355.679 712.62 355.839 712.58L356.019 713.94C355.819 714.033 355.579 714.1 355.299 714.14C355.019 714.18 354.739 714.2 354.459 714.2ZM354.236 701.3V700.42C354.502 700.367 354.776 700.293 355.056 700.2C355.336 700.093 355.569 699.96 355.756 699.8C355.942 699.627 356.036 699.42 356.036 699.18C356.036 699.02 355.989 698.887 355.896 698.78C355.789 698.66 355.629 698.6 355.416 698.6C355.282 698.6 355.149 698.627 355.016 698.68C354.869 698.733 354.742 698.78 354.636 698.82L354.236 697.72C354.502 697.507 354.802 697.367 355.136 697.3C355.456 697.233 355.716 697.2 355.916 697.2C356.449 697.2 356.869 697.347 357.176 697.64C357.469 697.933 357.616 698.307 357.616 698.76C357.616 699.133 357.522 699.46 357.336 699.74C357.136 700.007 356.909 700.22 356.656 700.38L356.456 699.9H360.436V701.3H354.236ZM367.074 714.2C366.287 714.2 365.607 714.067 365.034 713.8C364.474 713.52 364.04 713.1 363.734 712.54C363.44 711.98 363.294 711.253 363.294 710.36V703.04H365.074V710.26C365.074 711.06 365.274 711.667 365.674 712.08C366.087 712.493 366.68 712.7 367.454 712.7C368.387 712.7 369.107 712.4 369.614 711.8C370.134 711.2 370.394 710.393 370.394 709.38V703.04H372.174V714H370.694L370.614 712.38H370.514C370.274 712.913 369.854 713.353 369.254 713.7C368.667 714.033 367.94 714.2 367.074 714.2ZM377.859 714.2C377.486 714.2 377.133 714.14 376.799 714.02C376.466 713.9 376.193 713.687 375.979 713.38C375.766 713.073 375.659 712.647 375.659 712.1V704.28C375.659 703.907 375.693 703.607 375.759 703.38C375.826 703.14 375.933 702.907 376.079 702.68C376.239 702.453 376.459 702.167 376.739 701.82C377.073 701.407 377.319 701.067 377.479 700.8C377.639 700.533 377.719 700.24 377.719 699.92C377.719 699.533 377.599 699.247 377.359 699.06C377.133 698.86 376.779 698.76 376.299 698.76C375.886 698.76 375.506 698.82 375.159 698.94C374.826 699.06 374.546 699.18 374.319 699.3V697.78C374.506 697.673 374.786 697.573 375.159 697.48C375.546 697.373 375.999 697.32 376.519 697.32C377.399 697.32 378.106 697.52 378.639 697.92C379.186 698.307 379.459 698.907 379.459 699.72C379.459 700.253 379.359 700.72 379.159 701.12C378.959 701.52 378.726 701.88 378.459 702.2C378.233 702.493 378.039 702.74 377.879 702.94C377.733 703.127 377.619 703.32 377.539 703.52C377.473 703.72 377.439 703.987 377.439 704.32V711.88C377.439 712.187 377.506 712.407 377.639 712.54C377.773 712.673 377.979 712.74 378.259 712.74C378.406 712.74 378.546 712.727 378.679 712.7C378.813 712.673 378.933 712.64 379.039 712.6L379.279 713.9C379.026 714.02 378.779 714.1 378.539 714.14C378.313 714.18 378.086 714.2 377.859 714.2ZM384.986 714.2C383.72 714.2 382.74 713.9 382.046 713.3C381.366 712.687 381.026 711.773 381.026 710.56V709.34C381.026 708.673 381.12 708.147 381.306 707.76C381.493 707.373 381.693 707.04 381.906 706.76C382.133 706.453 382.326 706.187 382.486 705.96C382.66 705.733 382.746 705.46 382.746 705.14C382.746 704.86 382.673 704.66 382.526 704.54C382.393 704.42 382.22 704.36 382.006 704.36C381.846 704.36 381.673 704.387 381.486 704.44C381.313 704.493 381.14 704.56 380.966 704.64L380.566 703.36C380.806 703.2 381.1 703.087 381.446 703.02C381.806 702.953 382.12 702.92 382.386 702.92C382.88 702.92 383.273 703.007 383.566 703.18C383.873 703.353 384.093 703.593 384.226 703.9C384.36 704.193 384.426 704.54 384.426 704.94C384.426 705.433 384.34 705.84 384.166 706.16C384.006 706.48 383.813 706.793 383.586 707.1C383.36 707.433 383.173 707.753 383.026 708.06C382.88 708.367 382.806 708.767 382.806 709.26V710.44C382.806 711.053 382.906 711.527 383.106 711.86C383.306 712.193 383.573 712.427 383.906 712.56C384.24 712.68 384.6 712.74 384.986 712.74C385.653 712.74 386.16 712.587 386.506 712.28C386.853 711.96 387.026 711.473 387.026 710.82V708.02C387.026 707.527 386.913 707.153 386.686 706.9C386.46 706.633 386.093 706.5 385.586 706.5H385.506V705.36H385.606C386.153 705.36 386.54 705.233 386.766 704.98C386.993 704.727 387.126 704.42 387.166 704.06C387.22 703.687 387.246 703.347 387.246 703.04H389.026C389.026 703.747 388.94 704.347 388.766 704.84C388.593 705.333 388.2 705.693 387.586 705.92V706C387.96 706.093 388.226 706.253 388.386 706.48C388.56 706.693 388.673 706.94 388.726 707.22C388.78 707.487 388.806 707.747 388.806 708V710.92C388.806 711.947 388.486 712.753 387.846 713.34C387.206 713.913 386.253 714.2 384.986 714.2ZM383.454 701.3V700.42C383.721 700.367 383.994 700.293 384.274 700.2C384.554 700.093 384.788 699.96 384.974 699.8C385.161 699.627 385.254 699.42 385.254 699.18C385.254 699.02 385.208 698.887 385.114 698.78C385.008 698.66 384.848 698.6 384.634 698.6C384.501 698.6 384.368 698.627 384.234 698.68C384.088 698.733 383.961 698.78 383.854 698.82L383.454 697.72C383.721 697.507 384.021 697.367 384.354 697.3C384.674 697.233 384.934 697.2 385.134 697.2C385.668 697.2 386.088 697.347 386.394 697.64C386.688 697.933 386.834 698.307 386.834 698.76C386.834 699.133 386.741 699.46 386.554 699.74C386.354 700.007 386.128 700.22 385.874 700.38L385.674 699.9H389.654V701.3H383.454ZM393.902 714L390.482 703.04H392.282L395.242 712.46H395.482C395.802 712.46 396.116 712.387 396.422 712.24C396.729 712.08 396.989 711.88 397.202 711.64C397.602 711.2 397.896 710.647 398.082 709.98C398.269 709.3 398.362 708.633 398.362 707.98C398.362 706.873 398.109 706.007 397.602 705.38C397.109 704.74 396.422 704.42 395.542 704.42C395.369 704.42 395.196 704.433 395.022 704.46C394.862 704.487 394.729 704.52 394.622 704.56L394.182 703.14C394.462 703.06 394.722 703.007 394.962 702.98C395.216 702.953 395.442 702.94 395.642 702.94C396.309 702.94 396.902 703.04 397.422 703.24C397.956 703.427 398.409 703.707 398.782 704.08C399.249 704.533 399.589 705.1 399.802 705.78C400.029 706.46 400.142 707.213 400.142 708.04C400.142 709.08 399.982 710.007 399.662 710.82C399.342 711.62 398.942 712.26 398.462 712.74C398.076 713.127 397.602 713.433 397.042 713.66C396.482 713.887 395.769 714 394.902 714H393.902ZM405.945 714V706.22C405.945 705.567 405.791 705.087 405.485 704.78C405.191 704.473 404.691 704.32 403.985 704.32C403.505 704.32 403.051 704.387 402.625 704.52C402.211 704.64 401.811 704.813 401.425 705.04V703.44C401.691 703.307 402.071 703.173 402.565 703.04C403.058 702.907 403.645 702.84 404.325 702.84C405.018 702.84 405.618 702.94 406.125 703.14C406.631 703.34 407.025 703.673 407.305 704.14C407.585 704.593 407.725 705.2 407.725 705.96V714H405.945ZM414.75 714.2C413.963 714.2 413.283 714.067 412.71 713.8C412.15 713.52 411.716 713.1 411.41 712.54C411.116 711.98 410.97 711.253 410.97 710.36V703.04H412.75V710.26C412.75 711.06 412.95 711.667 413.35 712.08C413.763 712.493 414.356 712.7 415.13 712.7C416.063 712.7 416.783 712.4 417.29 711.8C417.81 711.2 418.07 710.393 418.07 709.38V703.04H419.85V714H418.37L418.29 712.38H418.19C417.95 712.913 417.53 713.353 416.93 713.7C416.343 714.033 415.616 714.2 414.75 714.2Z" fill="#1B2420"/>
</g>
<defs>
<linearGradient id="paint0_linear_7_490" x1="294" y1="-398.407" x2="294" y2="1043.95" gradientUnits="userSpaceOnUse">
<stop stop-color="#338064"/>
<stop offset="1" stop-color="#8FCCB6"/>
</linearGradient>
<linearGradient id="paint1_linear_7_490" x1="-442" y1="186.74" x2="267.936" y2="186.74" gradientUnits="userSpaceOnUse">
<stop stop-color="#338064"/>
<stop offset="1" stop-color="#8FCCB6"/>
</linearGradient>
<linearGradient id="paint2_linear_7_490" x1="241" y1="1148.5" x2="645.5" y2="870.5" gradientUnits="userSpaceOnUse">
<stop stop-color="#5FD7AB"/>
<stop offset="1" stop-color="#A4DDC8"/>
</linearGradient>
<clipPath id="clip0_7_490">
<rect width="588" height="1024" fill="white"/>
</clipPath>
<clipPath id="clip1_7_490">
<rect width="399" height="278" fill="white" transform="translate(95 232)"/>
</clipPath>
</defs>
</svg>
