<svg width="588" height="1024" viewBox="0 0 588 1024" fill="none" xmlns="http://www.w3.org/2000/svg">
<g clip-path="url(#clip0_7_490)">
<rect width="588" height="1024" fill="url(#paint0_linear_7_490)"/>
<path d="M-91.4075 -103.729C-230.208 -172.929 -345.574 -124.562 -385.907 -91.7288C-399.074 -79.0621 -428.107 -46.4288 -438.907 -17.2288C-452.407 19.2712 -419.907 173.271 -376.407 176.271C-332.907 179.271 -234.407 224.771 -238.407 303.271C-242.407 381.771 -101.908 488.771 -34.4075 506.271C33.0925 523.771 38.5925 511.771 133.593 370.771C228.593 229.771 241.593 292.771 262.093 242.271C282.593 191.771 253.593 108.771 103.593 35.2712C-46.4075 -38.2288 82.0925 -17.2288 -91.4075 -103.729Z" fill="url(#paint1_linear_7_490)"/>
<path d="M728.592 740.271C589.792 671.071 474.426 719.438 434.093 752.271C420.926 764.938 391.893 797.571 381.093 826.771C367.593 863.271 400.093 1017.27 443.593 1020.27C487.093 1023.27 585.593 1068.77 581.593 1147.27C577.593 1225.77 718.092 1332.77 785.592 1350.27C853.092 1367.77 858.593 1355.77 953.593 1214.77C1048.59 1073.77 1061.59 1136.77 1082.09 1086.27C1102.59 1035.77 1073.59 952.771 923.593 879.271C773.593 805.771 902.093 826.771 728.592 740.271Z" fill="url(#paint2_linear_7_490)"/>
<g clip-path="url(#clip1_7_490)">
<path d="M397.959 480.219L397.11 491.839C397.072 492.365 397.146 492.893 397.328 493.388C397.51 493.883 397.796 494.333 398.166 494.708C398.536 495.083 398.983 495.375 399.475 495.563C399.967 495.752 400.493 495.833 401.019 495.801L406.982 495.44C407.258 495.423 407.527 495.345 407.77 495.213C408.013 495.08 408.224 494.895 408.387 494.672C408.551 494.448 408.664 494.192 408.717 493.92C408.77 493.648 408.763 493.368 408.696 493.099L405.386 479.848L397.959 480.219Z" fill="#E6E6E6"/>
<path d="M417.262 479.848L413.953 493.099C413.886 493.368 413.878 493.648 413.932 493.92C413.985 494.192 414.098 494.448 414.261 494.672C414.425 494.895 414.636 495.08 414.879 495.213C415.122 495.345 415.391 495.423 415.667 495.44L421.63 495.801C422.155 495.833 422.682 495.752 423.174 495.563C423.666 495.375 424.112 495.083 424.482 494.708C424.853 494.333 425.138 493.883 425.321 493.388C425.503 492.893 425.577 492.365 425.539 491.839L424.689 480.219L417.262 479.848Z" fill="#E6E6E6"/>
<path d="M425.075 481.833L417.028 481.024L409.018 395.313L405.99 480.748L398.085 480.465L384.761 362.142H435.665L425.075 481.833Z" fill="#5FD7AB"/>
<path d="M408.768 395.304L405.749 480.489L398.309 480.223L385.04 362.392H435.392L424.848 481.559L417.258 480.796L409.266 395.29L408.768 395.304Z" stroke="#1B2420" stroke-opacity="0.25" stroke-width="0.5"/>
<path d="M443.181 364.878L381.003 365.562C390.23 330.399 395.75 297.736 386.127 275.281L401.501 267.757C408.914 275.497 417.17 274.699 426.099 267.073L440.79 270.835C438.274 300.281 439.402 331.819 443.181 364.878Z" fill="#5FD7AB"/>
<path d="M440.523 271.025C438.035 300.35 439.155 331.739 442.902 364.631L381.328 365.308C385.904 347.835 389.559 330.974 390.883 315.677C392.207 300.389 391.205 286.642 386.45 275.401L401.448 268.062C405.154 271.878 409.095 273.614 413.243 273.427C417.396 273.239 421.711 271.126 426.163 267.348L440.523 271.025Z" stroke="#1B2420" stroke-opacity="0.25" stroke-width="0.5"/>
<path d="M428.379 260.747L397.599 261.047C396.153 253.918 391.292 235.211 395.669 230.109C395.869 228.189 396.801 226.419 398.271 225.169C399.741 223.919 401.636 223.285 403.561 223.398C408.332 215.923 416.278 217.046 421.649 221.714C427.054 223.581 429.092 226.898 428.379 231.398C432.382 234.905 433.12 239.173 431.324 244.03L428.379 260.747Z" fill="#2F2E41"/>
<path d="M425.416 279.726L403.209 276.648L398.768 270.151C404.886 266.089 407.051 260.415 404.234 252.71L419.608 252.368C418.888 259.229 421.155 264.542 427.466 267.757L425.416 279.726Z" fill="#FFB9B9"/>
<path d="M412.775 258.182C421.266 258.182 428.149 251.292 428.149 242.793C428.149 234.294 421.266 227.404 412.775 227.404C404.285 227.404 397.401 234.294 397.401 242.793C397.401 251.292 404.285 258.182 412.775 258.182Z" fill="#FFB9B9"/>
<path d="M430.102 240.299C423.863 238.69 417.728 238.469 411.764 240.51C407.965 242.352 403.403 242.182 398.33 240.665V225.311L425.72 226.042L430.102 240.299Z" fill="#2F2E41"/>
<path d="M402.398 310.698C401.191 310.7 400.033 311.18 399.18 312.035C398.326 312.889 397.846 314.048 397.845 315.256L399.642 352.916C399.643 354.124 400.123 355.283 400.977 356.137C401.831 356.992 402.988 357.472 404.195 357.474H424.744C425.951 357.472 427.109 356.992 427.962 356.137C428.816 355.283 429.296 354.124 429.297 352.916L431.095 315.256C431.093 314.048 430.613 312.889 429.759 312.035C428.906 311.18 427.748 310.7 426.541 310.698H402.398Z" fill="#3F3D56"/>
<path d="M423.007 256.49C416.281 259.29 409.229 259.176 401.889 256.49C404.024 252.841 400.832 249.982 399.193 246.298L426.601 245.483C424.505 248.683 421.413 252.465 423.007 256.49Z" fill="white"/>
<path d="M426.311 246.092L425.993 245.774L426.442 245.324L429.127 242.189L429.468 242.481L426.772 245.629L426.311 246.092Z" fill="white"/>
<path d="M397.314 244.186L397.027 244.532L399.723 246.78L400.01 246.435L397.314 244.186Z" fill="white"/>
<path d="M427.085 248.736L422.366 256.157L422.746 256.398L427.465 248.978L427.085 248.736Z" fill="white"/>
<path d="M397.81 248.736L397.43 248.977L402.148 256.398L402.527 256.157L397.81 248.736Z" fill="white"/>
<path d="M432.056 302.196H430.432C430.432 279.209 425.704 263.189 421.096 263.189L420.69 261.564C424.822 261.564 427.457 268.231 428.939 273.824C430.949 281.407 432.056 291.483 432.056 302.196Z" fill="#3F3D56"/>
<path d="M394.71 296.508H393.087C393.087 275.455 397.848 262.376 404.859 262.376L404.453 264.002C399.603 264.002 394.71 274.053 394.71 296.508Z" fill="#3F3D56"/>
<path d="M431.244 306.666C433.486 306.666 435.303 304.847 435.303 302.602C435.303 300.358 433.486 298.539 431.244 298.539C429.002 298.539 427.185 300.358 427.185 302.602C427.185 304.847 429.002 306.666 431.244 306.666Z" fill="#3F3D56"/>
<path d="M388.215 306.259H386.592C386.592 300.434 389.87 295.695 393.899 295.695V297.32C390.765 297.32 388.215 301.33 388.215 306.259Z" fill="#3F3D56"/>
<path d="M401.205 306.259H399.582C399.582 301.33 397.032 297.32 393.899 297.32V295.695C397.928 295.695 401.205 300.434 401.205 306.259Z" fill="#3F3D56"/>
<path d="M400.393 308.291C401.29 308.291 402.017 307.563 402.017 306.666C402.017 305.768 401.29 305.04 400.393 305.04C399.497 305.04 398.77 305.768 398.77 306.666C398.77 307.563 399.497 308.291 400.393 308.291Z" fill="#3F3D56"/>
<path d="M387.404 308.291C388.3 308.291 389.027 307.563 389.027 306.666C389.027 305.768 388.3 305.04 387.404 305.04C386.507 305.04 385.78 305.768 385.78 306.666C385.78 307.563 386.507 308.291 387.404 308.291Z" fill="#3F3D56"/>
<path d="M191.726 252.046L163.209 256.88C162.505 257 161.781 256.854 161.178 256.471C160.574 256.088 160.134 255.494 159.943 254.805C157.883 247.362 153.575 237.652 157.757 232.777C157.97 230.727 158.965 228.837 160.535 227.502C162.105 226.168 164.128 225.49 166.184 225.611C171.279 217.629 179.764 218.828 185.499 223.813C191.271 225.806 193.447 229.348 192.686 234.154C195.179 236.339 196.487 238.799 196.762 241.5C196.893 243.003 196.702 244.517 196.202 245.94C195.702 247.363 194.904 248.664 193.862 249.754L191.726 252.046Z" fill="#2F2E41"/>
<path d="M187.293 274.518L165.186 273.216C167.352 268.239 168.218 263.446 167.353 258.898H183.825C183.788 262.39 185.524 268.43 187.293 274.518Z" fill="#9F616A"/>
<path d="M160.682 478.991L159.775 491.399C159.734 491.961 159.814 492.525 160.008 493.053C160.203 493.582 160.508 494.062 160.903 494.463C161.299 494.864 161.775 495.175 162.3 495.376C162.826 495.578 163.388 495.664 163.95 495.63L170.317 495.244C170.612 495.226 170.899 495.143 171.159 495.002C171.418 494.86 171.643 494.663 171.818 494.424C171.993 494.186 172.113 493.911 172.17 493.621C172.227 493.331 172.219 493.032 172.147 492.745L168.613 478.594L160.682 478.991Z" fill="#E6E6E6"/>
<path d="M181.295 478.594L177.761 492.745C177.689 493.032 177.681 493.331 177.738 493.621C177.795 493.911 177.915 494.186 178.09 494.424C178.265 494.663 178.49 494.86 178.749 495.002C179.009 495.143 179.296 495.226 179.591 495.244L185.958 495.63C186.52 495.664 187.082 495.578 187.608 495.376C188.133 495.175 188.609 494.864 189.005 494.463C189.4 494.062 189.705 493.582 189.9 493.053C190.094 492.525 190.174 491.961 190.133 491.399L189.226 478.991L181.295 478.594Z" fill="#E6E6E6"/>
<path d="M189.637 480.714L181.045 479.851L172.49 388.325L169.258 479.556L160.816 479.253L146.588 352.903H200.946L189.637 480.714Z" fill="#5FD7AB"/>
<path d="M172.241 388.316L169.017 479.297L161.04 479.011L146.868 353.153H200.673L189.41 480.44L181.274 479.623L172.739 388.302L172.241 388.316Z" stroke="#1B2420" stroke-opacity="0.25" stroke-width="0.5"/>
<path d="M176.024 264.165C185.09 264.165 192.44 256.808 192.44 247.732C192.44 238.657 185.09 231.3 176.024 231.3C166.957 231.3 159.607 238.657 159.607 247.732C159.607 256.808 166.957 264.165 176.024 264.165Z" fill="#9F616A"/>
<path d="M194.526 239.882C187.863 238.721 181.312 238.561 174.944 240.035C170.887 241.364 166.016 241.241 160.598 240.146V229.064L189.846 229.592L194.526 239.882Z" fill="#2F2E41"/>
<path d="M186.949 260.918C179.767 263.908 172.237 263.786 164.398 260.918C166.679 257.021 163.27 253.969 161.519 250.035L190.788 249.164C188.549 252.582 185.247 256.619 186.949 260.918Z" fill="white"/>
<path d="M159.504 247.791L159.216 248.136L162.095 250.538L162.383 250.192L159.504 247.791Z" fill="white"/>
<path d="M191.318 252.646L186.279 260.57L186.658 260.811L191.697 252.887L191.318 252.646Z" fill="white"/>
<path d="M160.029 252.645L159.65 252.887L164.688 260.811L165.067 260.57L160.029 252.645Z" fill="white"/>
<path d="M144.813 322.68L132.242 314.87L142.963 283.441C144.158 280.198 146.448 277.475 149.437 275.743L153.049 273.65L153.363 305.356L144.813 322.68Z" fill="#5FD7AB"/>
<path d="M153.112 305.299L144.71 322.322L132.543 314.763L143.198 283.525C144.374 280.338 146.625 277.662 149.563 275.959L152.803 274.082L153.112 305.299Z" stroke="#1B2420" stroke-opacity="0.25" stroke-width="0.5"/>
<path d="M228.472 318.775L216.769 314.87L198.048 293.055L203.764 274.518L229.773 310.965L228.472 318.775Z" fill="#5FD7AB"/>
<path d="M229.509 311.026L228.274 318.445L216.913 314.655L198.328 292.997L203.854 275.075L229.509 311.026Z" stroke="#1B2420" stroke-opacity="0.25" stroke-width="0.5"/>
<path d="M189.987 250.284L189.669 249.966L190.149 249.486L193.016 246.136L193.357 246.428L190.478 249.79L189.987 250.284Z" fill="white"/>
<path d="M494 495.1H95V496H494V495.1Z" fill="#3F3D56"/>
<path d="M247.321 494.651H341.679V380.089C341.679 374.023 335.71 369.088 328.373 369.088H260.627C253.29 369.088 247.321 374.023 247.321 380.089V494.651Z" fill="#E6E6E6"/>
<path d="M254.51 489.913H334.49V392.809C334.49 387.667 329.43 383.484 323.211 383.484H265.789C259.57 383.484 254.51 387.667 254.51 392.809V489.913Z" fill="white"/>
<path d="M246.608 360.172C244.276 360.172 242.378 361.741 242.378 363.669V373.764C242.378 375.692 244.276 377.261 246.608 377.261H342.392C344.724 377.261 346.622 375.692 346.622 373.764V363.669C346.622 361.741 344.724 360.172 342.392 360.172H246.608Z" fill="#3F3D56"/>
<path d="M266.274 477.462C265.179 477.465 264.13 477.902 263.355 478.677C262.581 479.452 262.145 480.502 262.142 481.598C262.145 482.694 262.581 483.745 263.355 484.52C264.13 485.295 265.179 485.731 266.274 485.735H274.009V477.462H266.274Z" fill="#3F3D56"/>
<path d="M281.108 477.462H273.585V485.735H281.108C282.203 485.731 283.252 485.295 284.026 484.52C284.8 483.745 285.237 482.694 285.24 481.598C285.237 480.502 284.8 479.452 284.026 478.677C283.252 477.902 282.203 477.465 281.108 477.462Z" fill="#5FD7AB"/>
<path opacity="0.2" d="M283.804 478.475C284.456 479.223 284.815 480.182 284.816 481.174C284.813 482.27 284.376 483.32 283.602 484.095C282.828 484.87 281.779 485.307 280.684 485.31H273.585V485.735H281.108C282.203 485.731 283.252 485.295 284.026 484.52C284.8 483.745 285.237 482.694 285.24 481.598C285.239 481.005 285.11 480.419 284.862 479.88C284.615 479.341 284.254 478.862 283.804 478.475Z" fill="black"/>
<path d="M301.178 415.158C300.424 414.363 299.387 413.898 298.292 413.866C297.198 413.834 296.135 414.236 295.336 414.986C294.542 415.74 294.078 416.778 294.045 417.874C294.013 418.969 294.415 420.033 295.164 420.833L300.469 426.467L306.483 420.792L301.178 415.158Z" fill="#3F3D56"/>
<path d="M311.353 425.963L306.192 420.484L300.179 426.158L305.339 431.637C306.092 432.433 307.129 432.897 308.224 432.93C309.318 432.962 310.381 432.56 311.18 431.81C311.975 431.056 312.439 430.018 312.471 428.922C312.503 427.827 312.101 426.763 311.353 425.963Z" fill="#5FD7AB"/>
<path opacity="0.2" d="M312.466 428.622C312.369 429.61 311.919 430.529 311.198 431.21C310.399 431.96 309.336 432.362 308.242 432.33C307.147 432.298 306.11 431.833 305.356 431.038L300.487 425.867L300.179 426.158L305.339 431.637C306.092 432.433 307.129 432.897 308.224 432.93C309.318 432.962 310.381 432.56 311.18 431.81C311.611 431.402 311.949 430.907 312.17 430.356C312.392 429.806 312.493 429.215 312.466 428.622Z" fill="black"/>
<path d="M279.161 428.201C278.407 427.406 277.37 426.942 276.276 426.909C275.181 426.877 274.118 427.279 273.319 428.029C272.525 428.783 272.061 429.821 272.028 430.917C271.996 432.012 272.398 433.076 273.147 433.876L278.452 439.51L284.466 433.835L279.161 428.201Z" fill="#3F3D56"/>
<path d="M289.336 439.006L284.176 433.527L278.162 439.201L283.322 444.68C284.075 445.476 285.112 445.94 286.207 445.973C287.301 446.005 288.364 445.603 289.163 444.853C289.958 444.099 290.422 443.061 290.454 441.965C290.487 440.87 290.084 439.806 289.336 439.006Z" fill="#5FD7AB"/>
<path opacity="0.2" d="M290.449 441.665C290.352 442.653 289.902 443.572 289.181 444.253C288.382 445.003 287.319 445.405 286.225 445.373C285.13 445.341 284.093 444.876 283.34 444.081L278.47 438.91L278.162 439.201L283.322 444.68C284.075 445.476 285.112 445.94 286.207 445.973C287.301 446.005 288.364 445.603 289.163 444.853C289.594 444.445 289.932 443.95 290.154 443.399C290.375 442.849 290.476 442.258 290.449 441.665Z" fill="black"/>
<path d="M301.178 440.345C300.424 439.55 299.387 439.085 298.292 439.053C297.198 439.02 296.135 439.423 295.336 440.172C294.542 440.927 294.078 441.965 294.045 443.06C294.013 444.156 294.415 445.22 295.164 446.019L300.469 451.653L306.483 445.979L301.178 440.345Z" fill="#3F3D56"/>
<path d="M311.353 451.15L306.192 445.67L300.179 451.345L305.339 456.824C306.092 457.619 307.129 458.084 308.224 458.116C309.318 458.149 310.381 457.746 311.18 456.997C311.975 456.243 312.439 455.204 312.471 454.109C312.503 453.013 312.101 451.949 311.353 451.15Z" fill="#5FD7AB"/>
<path opacity="0.2" d="M312.466 453.808C312.369 454.796 311.919 455.716 311.198 456.397C310.399 457.146 309.336 457.549 308.242 457.517C307.147 457.484 306.11 457.02 305.356 456.224L300.487 451.054L300.179 451.345L305.339 456.824C306.092 457.619 307.129 458.084 308.224 458.116C309.318 458.149 310.381 457.746 311.18 456.997C311.611 456.589 311.949 456.093 312.17 455.543C312.392 454.993 312.493 454.401 312.466 453.808Z" fill="black"/>
<path d="M314.609 466.191C315.394 465.428 315.846 464.384 315.865 463.288C315.884 462.192 315.469 461.133 314.711 460.343C313.948 459.557 312.905 459.105 311.81 459.086C310.715 459.067 309.657 459.482 308.868 460.241L303.304 465.62L309.046 471.57L314.609 466.191Z" fill="#3F3D56"/>
<path d="M303.939 476.507L309.35 471.275L303.609 465.325L298.198 470.557C297.412 471.32 296.961 472.364 296.942 473.46C296.923 474.556 297.338 475.615 298.096 476.405C298.859 477.191 299.902 477.643 300.997 477.662C302.092 477.681 303.15 477.266 303.939 476.507Z" fill="#5FD7AB"/>
<path opacity="0.2" d="M301.297 477.653C300.309 477.568 299.385 477.129 298.696 476.416C297.937 475.625 297.522 474.566 297.541 473.47C297.56 472.375 298.012 471.331 298.797 470.567L303.903 465.63L303.609 465.325L298.198 470.557C297.412 471.32 296.961 472.364 296.942 473.46C296.923 474.556 297.338 475.615 298.096 476.405C298.509 476.831 299.008 477.163 299.561 477.379C300.113 477.594 300.705 477.688 301.297 477.653Z" fill="black"/>
<path d="M284.954 453.148C285.739 452.385 286.191 451.341 286.21 450.245C286.229 449.149 285.814 448.09 285.055 447.3C284.292 446.513 283.249 446.062 282.155 446.043C281.06 446.024 280.002 446.439 279.212 447.198L273.649 452.577L279.39 458.527L284.954 453.148Z" fill="#3F3D56"/>
<path d="M274.284 463.464L279.695 458.232L273.953 452.282L268.542 457.514C267.757 458.277 267.306 459.321 267.287 460.417C267.268 461.513 267.683 462.572 268.441 463.362C269.204 464.148 270.247 464.6 271.342 464.619C272.436 464.638 273.494 464.223 274.284 463.464Z" fill="#5FD7AB"/>
<path opacity="0.2" d="M271.641 464.61C270.654 464.525 269.73 464.086 269.04 463.373C268.282 462.582 267.867 461.523 267.886 460.427C267.905 459.331 268.356 458.288 269.142 457.524L274.248 452.587L273.953 452.282L268.542 457.514C267.757 458.277 267.306 459.321 267.287 460.417C267.268 461.513 267.683 462.572 268.441 463.362C268.853 463.788 269.353 464.12 269.905 464.336C270.458 464.551 271.05 464.645 271.641 464.61Z" fill="black"/>
<path d="M327.19 437.407C327.975 436.643 328.427 435.599 328.446 434.503C328.465 433.407 328.05 432.349 327.292 431.558C326.529 430.772 325.486 430.32 324.391 430.301C323.296 430.282 322.238 430.697 321.449 431.456L315.885 436.835L321.627 442.785L327.19 437.407Z" fill="#3F3D56"/>
<path d="M316.52 447.722L321.931 442.491L316.19 436.54L310.779 441.772C309.994 442.536 309.542 443.579 309.523 444.675C309.504 445.771 309.919 446.83 310.677 447.621C311.44 448.407 312.483 448.859 313.578 448.878C314.673 448.897 315.731 448.481 316.52 447.722Z" fill="#5FD7AB"/>
<path opacity="0.2" d="M313.878 448.869C312.89 448.784 311.966 448.344 311.277 447.631C310.518 446.84 310.103 445.782 310.122 444.686C310.141 443.59 310.593 442.546 311.378 441.782L316.484 436.846L316.19 436.54L310.779 441.772C309.994 442.536 309.542 443.579 309.523 444.675C309.504 445.771 309.919 446.83 310.677 447.621C311.09 448.047 311.589 448.379 312.142 448.594C312.694 448.809 313.286 448.903 313.878 448.869Z" fill="black"/>
<path d="M317.803 470.029C317.049 469.234 316.012 468.769 314.917 468.737C313.823 468.705 312.76 469.107 311.961 469.857C311.167 470.611 310.703 471.649 310.67 472.745C310.638 473.84 311.04 474.904 311.789 475.704L317.094 481.337L323.108 475.663L317.803 470.029Z" fill="#3F3D56"/>
<path d="M327.978 480.834L322.817 475.354L316.804 481.029L321.964 486.508C322.717 487.304 323.754 487.768 324.849 487.801C325.943 487.833 327.006 487.43 327.805 486.681C328.6 485.927 329.064 484.889 329.096 483.793C329.128 482.697 328.726 481.634 327.978 480.834Z" fill="#5FD7AB"/>
<path opacity="0.2" d="M329.091 483.493C328.994 484.48 328.544 485.4 327.823 486.081C327.024 486.831 325.961 487.233 324.867 487.201C323.772 487.168 322.735 486.704 321.981 485.909L317.112 480.738L316.804 481.029L321.964 486.508C322.717 487.304 323.754 487.768 324.849 487.801C325.943 487.833 327.006 487.43 327.805 486.681C328.236 486.273 328.574 485.777 328.795 485.227C329.017 484.677 329.118 484.085 329.091 483.493Z" fill="black"/>
<path d="M288.596 469.579C287.843 468.784 286.806 468.32 285.711 468.287C284.617 468.255 283.554 468.657 282.755 469.407C281.961 470.161 281.496 471.199 281.464 472.295C281.432 473.39 281.834 474.454 282.583 475.254L287.888 480.888L293.902 475.213L288.596 469.579Z" fill="#3F3D56"/>
<path d="M298.772 480.384L293.611 474.905L287.597 480.579L292.758 486.059C293.511 486.854 294.548 487.318 295.643 487.351C296.737 487.383 297.8 486.981 298.599 486.231C299.394 485.477 299.858 484.439 299.89 483.343C299.922 482.248 299.52 481.184 298.772 480.384Z" fill="#5FD7AB"/>
<path opacity="0.2" d="M299.885 483.043C299.788 484.031 299.338 484.95 298.617 485.631C297.818 486.381 296.755 486.783 295.66 486.751C294.566 486.719 293.529 486.254 292.775 485.459L287.906 480.288L287.597 480.579L292.758 486.058C293.511 486.854 294.548 487.318 295.643 487.351C296.737 487.383 297.8 486.981 298.599 486.231C299.03 485.823 299.367 485.328 299.589 484.777C299.811 484.227 299.912 483.636 299.885 483.043Z" fill="black"/>
<path d="M296.818 454.74C296.818 456.116 296.343 457.449 295.475 458.514C294.606 459.579 293.396 460.311 292.05 460.586C291.263 460.745 290.453 460.745 289.666 460.586C288.32 460.311 287.111 459.579 286.242 458.514C285.373 457.448 284.899 456.115 284.899 454.74C284.899 453.365 285.373 452.032 286.242 450.967C287.111 449.902 288.32 449.17 289.666 448.894C290.453 448.735 291.263 448.735 292.05 448.894C293.396 449.169 294.606 449.902 295.475 450.967C296.343 452.032 296.818 453.365 296.818 454.74Z" fill="#5FD7AB"/>
<path opacity="0.2" d="M292.05 448.894V460.586C291.263 460.745 290.453 460.745 289.666 460.586V448.894C290.453 448.735 291.263 448.735 292.05 448.894Z" fill="black"/>
<path d="M299.514 430.903C299.514 432.278 299.039 433.611 298.171 434.677C297.302 435.742 296.092 436.474 294.746 436.749C293.959 436.908 293.149 436.908 292.362 436.749C291.016 436.474 289.807 435.741 288.938 434.676C288.069 433.611 287.595 432.278 287.595 430.903C287.595 429.528 288.069 428.195 288.938 427.13C289.807 426.065 291.016 425.332 292.362 425.057C293.149 424.898 293.959 424.898 294.746 425.057C296.092 425.332 297.302 426.064 298.171 427.129C299.039 428.195 299.514 429.528 299.514 430.903Z" fill="#5FD7AB"/>
<path opacity="0.2" d="M294.746 425.057V436.749C293.959 436.908 293.149 436.908 292.362 436.749V425.057C293.149 424.898 293.959 424.898 294.746 425.057Z" fill="black"/>
<path d="M299.514 465.085C299.514 466.46 299.039 467.793 298.171 468.858C297.302 469.924 296.092 470.656 294.746 470.931C293.959 471.09 293.149 471.09 292.362 470.931C291.016 470.655 289.807 469.923 288.938 468.858C288.069 467.793 287.595 466.46 287.595 465.085C287.595 463.71 288.069 462.377 288.938 461.312C289.807 460.246 291.016 459.514 292.362 459.239C293.149 459.08 293.959 459.08 294.746 459.239C296.092 459.514 297.302 460.246 298.171 461.311C299.039 462.377 299.514 463.71 299.514 465.085Z" fill="#5FD7AB"/>
<path opacity="0.2" d="M294.746 459.239V470.931C293.959 471.09 293.149 471.09 292.362 470.931V459.239C293.149 459.08 293.959 459.08 294.746 459.239Z" fill="black"/>
<path d="M314.341 481.726C314.341 483.101 313.867 484.434 312.998 485.499C312.13 486.565 310.92 487.297 309.574 487.572C308.787 487.731 307.977 487.731 307.19 487.572C305.844 487.297 304.634 486.564 303.766 485.499C302.897 484.434 302.422 483.101 302.422 481.726C302.422 480.351 302.897 479.018 303.766 477.953C304.634 476.888 305.844 476.155 307.19 475.88C307.977 475.721 308.787 475.721 309.574 475.88C310.92 476.155 312.13 476.887 312.998 477.952C313.867 479.018 314.342 480.351 314.341 481.726Z" fill="#5FD7AB"/>
<path opacity="0.2" d="M309.574 475.88V487.572C308.787 487.731 307.977 487.731 307.19 487.572V475.88C307.977 475.721 308.787 475.721 309.574 475.88Z" fill="black"/>
<path d="M327.44 451.108C328.429 452.062 329.059 453.329 329.222 454.695C329.385 456.06 329.073 457.44 328.336 458.601C327.905 459.278 327.342 459.863 326.682 460.319C325.55 461.098 324.184 461.462 322.815 461.349C321.445 461.235 320.157 460.652 319.168 459.698C318.179 458.744 317.55 457.477 317.386 456.112C317.223 454.746 317.536 453.366 318.272 452.205C318.703 451.528 319.266 450.944 319.926 450.487C321.058 449.708 322.424 449.344 323.794 449.457C325.163 449.57 326.451 450.154 327.44 451.108Z" fill="#5FD7AB"/>
<path opacity="0.2" d="M319.926 450.487L328.336 458.601C327.905 459.278 327.342 459.863 326.682 460.319L318.272 452.205C318.703 451.528 319.266 450.944 319.926 450.487Z" fill="black"/>
<path d="M329.237 464.151C330.226 465.105 330.856 466.372 331.019 467.738C331.183 469.103 330.87 470.483 330.134 471.644C329.702 472.322 329.14 472.906 328.479 473.362C327.347 474.141 325.981 474.505 324.612 474.392C323.243 474.279 321.955 473.696 320.966 472.741C319.977 471.787 319.347 470.52 319.184 469.155C319.02 467.789 319.333 466.409 320.069 465.248C320.501 464.571 321.063 463.987 321.724 463.53C322.855 462.751 324.222 462.387 325.591 462.5C326.96 462.614 328.248 463.197 329.237 464.151Z" fill="#5FD7AB"/>
<path opacity="0.2" d="M321.724 463.53L330.134 471.644C329.702 472.321 329.14 472.906 328.479 473.362L320.069 465.248C320.501 464.571 321.063 463.987 321.724 463.53Z" fill="black"/>
<path d="M275.767 467.3C276.757 468.254 277.386 469.521 277.55 470.886C277.713 472.252 277.4 473.632 276.664 474.792C276.232 475.47 275.67 476.054 275.01 476.511C273.878 477.289 272.511 477.653 271.142 477.54C269.773 477.427 268.485 476.844 267.496 475.89C266.507 474.935 265.877 473.668 265.714 472.303C265.551 470.938 265.864 469.558 266.6 468.397C267.031 467.719 267.594 467.135 268.254 466.679C269.386 465.899 270.752 465.536 272.121 465.649C273.49 465.762 274.779 466.345 275.767 467.3Z" fill="#5FD7AB"/>
<path opacity="0.2" d="M268.254 466.679L276.664 474.792C276.232 475.47 275.67 476.054 275.01 476.51L266.6 468.397C267.031 467.719 267.594 467.135 268.254 466.679Z" fill="black"/>
<path opacity="0.2" d="M256.532 360.172H254.285V376.813H256.532V360.172Z" fill="black"/>
<path opacity="0.2" d="M269.562 360.172H267.316V376.813H269.562V360.172Z" fill="black"/>
<path opacity="0.2" d="M282.593 360.172H280.346V376.813H282.593V360.172Z" fill="black"/>
<path opacity="0.2" d="M295.623 360.172H293.377V376.813H295.623V360.172Z" fill="black"/>
<path opacity="0.2" d="M308.654 360.172H306.407V376.813H308.654V360.172Z" fill="black"/>
<path opacity="0.2" d="M321.684 360.172H319.438V376.813H321.684V360.172Z" fill="black"/>
<path opacity="0.2" d="M334.715 360.172H332.468V376.813H334.715V360.172Z" fill="black"/>
<path d="M199.148 337.944L197.289 321.999C197.189 313.583 198.62 305.446 202.031 297.948L203.765 274.518L184.692 266.708C184.633 267.097 184.584 267.486 184.528 267.875L175.589 272.349L166.871 270.365L166.92 267.576L149.581 275.386C155.315 302.069 152.187 329.779 142.327 362.509L165.169 368.761L165.359 357.782L185.717 356.326C185.926 359.888 186.095 363.387 186.193 366.808C197.68 371.041 198.074 370.971 208.54 364.91C204.372 356.138 201.072 347.011 199.148 337.944Z" fill="#5FD7AB"/>
<path d="M198.9 337.973L198.902 337.985L198.904 337.996C200.817 347.014 204.088 356.087 208.216 364.809C203.095 367.773 200.467 369.233 197.728 369.47C194.979 369.708 192.096 368.716 186.438 366.632C186.339 363.261 186.173 359.817 185.966 356.312L185.951 356.059L185.699 356.077L165.341 357.532L165.113 357.549L165.109 357.777L164.925 368.435L142.64 362.335C152.425 329.77 155.542 302.143 149.868 275.531L166.663 267.966L166.621 270.361L166.618 270.564L166.816 270.609L175.534 272.592L175.621 272.612L175.701 272.572L184.64 268.098L184.757 268.04L184.775 267.91C184.799 267.748 184.821 267.588 184.842 267.429C184.859 267.306 184.876 267.183 184.893 267.061L203.502 274.681L201.785 297.885C198.369 305.41 196.939 313.571 197.039 322.002L197.039 322.015L197.04 322.028L198.9 337.973Z" stroke="#1B2420" stroke-opacity="0.25" stroke-width="0.5"/>
<path d="M127.257 295.656L138.075 297.59L162.802 332.782L149.666 329.688L127.257 295.656Z" fill="#E6E6E6"/>
<path d="M125.338 295.225C125.173 295.228 125.012 295.275 124.872 295.361C124.731 295.447 124.616 295.569 124.539 295.715C124.462 295.861 124.425 296.025 124.433 296.19C124.441 296.355 124.493 296.514 124.583 296.652L147.696 331.754C147.825 331.951 148.024 332.09 148.253 332.144L159.007 334.676C159.188 334.719 159.378 334.705 159.551 334.638C159.725 334.57 159.874 334.451 159.978 334.296C160.082 334.142 160.137 333.959 160.136 333.773C160.134 333.586 160.076 333.405 159.968 333.252L134.592 297.135C134.523 297.036 134.435 296.953 134.334 296.888C134.233 296.824 134.12 296.78 134.002 296.759L125.512 295.241C125.454 295.231 125.396 295.226 125.338 295.225Z" fill="#3F3D56"/>
<path d="M139.756 320.323L140.399 326.8L150.535 325.792C151.393 325.707 152.182 325.284 152.729 324.617C153.275 323.949 153.534 323.092 153.449 322.233C153.364 321.374 152.942 320.584 152.275 320.037C151.608 319.49 150.751 319.231 149.893 319.316L139.756 320.323Z" fill="#E6E6E6"/>
<path d="M130.942 319.573C130.957 321.781 131.843 323.894 133.407 325.452C134.971 327.009 137.087 327.884 139.294 327.887H140.96L142.174 317.765L132.127 314.144L130.942 319.573Z" fill="#5FD7AB"/>
<path d="M133.583 325.274C132.072 323.77 131.214 321.731 131.192 319.599L132.31 314.476L141.902 317.932L140.738 327.637H139.294C137.154 327.634 135.101 326.785 133.583 325.274Z" stroke="#1B2420" stroke-opacity="0.25" stroke-width="0.5"/>
<path d="M191.793 335.663C191.985 336.505 192.502 337.235 193.231 337.696C193.96 338.156 194.841 338.308 195.682 338.119L205.617 335.867L204.181 329.519L194.246 331.771C193.405 331.961 192.674 332.479 192.214 333.209C191.754 333.939 191.603 334.822 191.793 335.663V335.663Z" fill="#E6E6E6"/>
<path d="M200.73 328.321L206.365 338.734C215.843 336.088 224.058 327.746 231.94 317.907L229.773 310.965L216.335 314.436L200.73 328.321Z" fill="#5FD7AB"/>
<path d="M206.49 338.439L201.044 328.376L216.456 314.663L229.605 311.266L231.662 317.855C223.858 327.582 215.77 335.767 206.49 338.439Z" stroke="#1B2420" stroke-opacity="0.25" stroke-width="0.5"/>
<path d="M460.701 325.783L427.051 339.195L424.512 340.207C424.431 340.239 424.35 340.266 424.265 340.293L415.759 342.798C414.672 343.117 413.167 341.651 412.286 340.639C411.85 340.151 411.603 339.523 411.59 338.869C411.576 338.215 411.798 337.577 412.214 337.072C412.332 336.937 412.461 336.812 412.6 336.699C412.928 336.444 413.314 336.274 413.724 336.204L422.22 334.531C422.525 334.471 422.818 334.362 423.088 334.207L427.051 331.896L447.625 319.905C448.197 319.572 448.633 319.047 448.854 318.422C449.076 317.798 449.068 317.115 448.834 316.496L444.907 306.129C444.666 305.495 444.664 304.794 444.901 304.159C445.139 303.523 445.599 302.995 446.196 302.675L452.703 299.185C453.074 298.985 453.487 298.872 453.908 298.855C454.33 298.838 454.75 298.917 455.137 299.085C455.523 299.254 455.867 299.509 456.141 299.83C456.415 300.151 456.613 300.53 456.72 300.939L462.368 322.473C462.541 323.134 462.468 323.835 462.161 324.444C461.853 325.054 461.334 325.53 460.701 325.783Z" fill="#FFB9B9"/>
<path d="M462.655 296.825C455.31 299.693 449.468 304.588 444.89 311.188L439 294C439.259 285.059 440 271.5 440.79 270.835L462.655 296.825Z" fill="#5FD7AB"/>
<path d="M440.741 271.707C440.777 271.54 440.812 271.401 440.846 271.289L462.24 296.72C455.145 299.565 449.459 304.306 444.967 310.642L439.251 293.962C439.381 289.501 439.63 283.902 439.945 279.331C440.103 277.037 440.278 275.006 440.462 273.508C440.554 272.758 440.647 272.148 440.741 271.707Z" stroke="#1B2420" stroke-opacity="0.25" stroke-width="0.5"/>
<path d="M427.949 331.259V339.408L425.116 340.537C425.025 340.572 424.935 340.602 424.84 340.633L415.345 343.429C414.132 343.785 412.451 342.149 411.468 341.019C410.982 340.475 410.706 339.774 410.691 339.043C410.676 338.313 410.924 337.602 411.388 337.038C411.519 336.887 411.664 336.747 411.819 336.621C412.185 336.336 412.616 336.146 413.073 336.069L422.558 334.201C422.898 334.135 423.225 334.012 423.526 333.84L427.949 331.259Z" fill="white"/>
<path d="M363.921 328.628L402.526 344.017L411.157 346.558C411.543 346.672 411.948 346.706 412.348 346.659C412.748 346.612 413.134 346.485 413.483 346.285C413.832 346.085 414.138 345.816 414.38 345.495C414.623 345.174 414.799 344.807 414.896 344.416C415.068 343.731 414.991 343.007 414.68 342.373C414.368 341.739 413.843 341.236 413.197 340.953L404.234 338.204L377.245 322.473L382.882 307.597L371.095 301.271L363.921 328.628Z" fill="#FFB9B9"/>
<path d="M364.262 300.587C371.607 303.455 377.449 308.35 382.028 314.949L391.5 296C390.662 287.455 388 276.5 386.127 275.281L364.262 300.587Z" fill="#5FD7AB"/>
<path d="M391.244 295.953L381.992 314.462C377.494 308.098 371.796 303.337 364.682 300.484L386.157 275.628C386.304 275.773 386.468 275.993 386.646 276.297C386.891 276.715 387.146 277.263 387.407 277.923C387.927 279.241 388.459 280.98 388.959 282.955C389.955 286.88 390.824 291.71 391.244 295.953Z" stroke="#1B2420" stroke-opacity="0.25" stroke-width="0.5"/>
</g>
<path d="M218.833 617L211.213 590.818H218.206L222.157 607.974H222.374L226.887 590.818H232.588L237.101 608.013H237.319L241.282 590.818H248.262L240.655 617H234.557L229.84 601.122H229.635L224.918 617H218.833ZM257.875 617.371C255.821 617.371 254.049 616.966 252.557 616.156C251.074 615.338 249.932 614.175 249.131 612.666C248.338 611.149 247.942 609.347 247.942 607.259C247.942 605.23 248.343 603.457 249.144 601.94C249.945 600.415 251.074 599.23 252.532 598.386C253.989 597.534 255.706 597.108 257.684 597.108C259.081 597.108 260.36 597.325 261.519 597.76C262.678 598.195 263.679 598.838 264.523 599.69C265.367 600.543 266.023 601.595 266.492 602.848C266.961 604.092 267.195 605.52 267.195 607.131V608.69H250.128V605.06H261.378C261.37 604.395 261.212 603.803 260.905 603.283C260.598 602.763 260.176 602.358 259.64 602.068C259.111 601.77 258.502 601.621 257.811 601.621C257.113 601.621 256.486 601.778 255.932 602.094C255.378 602.401 254.939 602.822 254.615 603.359C254.292 603.888 254.121 604.489 254.104 605.162V608.857C254.104 609.658 254.262 610.361 254.577 610.966C254.892 611.562 255.34 612.027 255.919 612.359C256.499 612.692 257.189 612.858 257.99 612.858C258.544 612.858 259.047 612.781 259.499 612.628C259.951 612.474 260.338 612.249 260.662 611.95C260.986 611.652 261.229 611.286 261.391 610.851L267.131 611.017C266.892 612.304 266.368 613.425 265.559 614.379C264.757 615.325 263.705 616.062 262.401 616.591C261.097 617.111 259.588 617.371 257.875 617.371ZM276.639 590.818V617H270.388V590.818H276.639ZM289.784 617.371C287.713 617.371 285.936 616.945 284.453 616.092C282.979 615.24 281.846 614.055 281.053 612.538C280.26 611.013 279.864 609.249 279.864 607.246C279.864 605.234 280.26 603.47 281.053 601.953C281.854 600.428 282.992 599.239 284.466 598.386C285.949 597.534 287.718 597.108 289.772 597.108C291.587 597.108 293.168 597.436 294.515 598.092C295.87 598.749 296.926 599.678 297.685 600.879C298.452 602.072 298.857 603.474 298.9 605.085H293.057C292.938 604.08 292.597 603.291 292.034 602.72C291.48 602.149 290.756 601.864 289.861 601.864C289.137 601.864 288.502 602.068 287.956 602.477C287.411 602.878 286.985 603.474 286.678 604.267C286.38 605.051 286.23 606.023 286.23 607.182C286.23 608.341 286.38 609.321 286.678 610.122C286.985 610.915 287.411 611.516 287.956 611.925C288.502 612.325 289.137 612.526 289.861 612.526C290.441 612.526 290.952 612.402 291.395 612.155C291.847 611.908 292.218 611.545 292.507 611.068C292.797 610.582 292.98 609.994 293.057 609.304H298.9C298.84 610.923 298.435 612.338 297.685 613.548C296.944 614.759 295.9 615.7 294.553 616.374C293.215 617.038 291.625 617.371 289.784 617.371ZM311.265 617.371C309.202 617.371 307.43 616.949 305.947 616.105C304.472 615.253 303.335 614.068 302.533 612.551C301.741 611.026 301.344 609.257 301.344 607.246C301.344 605.226 301.741 603.457 302.533 601.94C303.335 600.415 304.472 599.23 305.947 598.386C307.43 597.534 309.202 597.108 311.265 597.108C313.327 597.108 315.096 597.534 316.57 598.386C318.053 599.23 319.191 600.415 319.984 601.94C320.785 603.457 321.185 605.226 321.185 607.246C321.185 609.257 320.785 611.026 319.984 612.551C319.191 614.068 318.053 615.253 316.57 616.105C315.096 616.949 313.327 617.371 311.265 617.371ZM311.303 612.653C312.053 612.653 312.688 612.423 313.208 611.963C313.728 611.503 314.124 610.864 314.397 610.045C314.678 609.227 314.819 608.281 314.819 607.207C314.819 606.116 314.678 605.162 314.397 604.344C314.124 603.526 313.728 602.886 313.208 602.426C312.688 601.966 312.053 601.736 311.303 601.736C310.528 601.736 309.871 601.966 309.335 602.426C308.806 602.886 308.401 603.526 308.12 604.344C307.847 605.162 307.711 606.116 307.711 607.207C307.711 608.281 307.847 609.227 308.12 610.045C308.401 610.864 308.806 611.503 309.335 611.963C309.871 612.423 310.528 612.653 311.303 612.653ZM324.388 617V597.364H330.332V600.969H330.55C330.959 599.776 331.649 598.834 332.621 598.143C333.592 597.453 334.751 597.108 336.098 597.108C337.462 597.108 338.629 597.457 339.601 598.156C340.572 598.855 341.19 599.793 341.455 600.969H341.659C342.026 599.801 342.741 598.868 343.807 598.169C344.872 597.462 346.129 597.108 347.578 597.108C349.436 597.108 350.945 597.705 352.104 598.898C353.263 600.082 353.842 601.71 353.842 603.781V617H347.591V605.213C347.591 604.233 347.339 603.487 346.837 602.976C346.334 602.456 345.682 602.196 344.881 602.196C344.02 602.196 343.342 602.477 342.848 603.04C342.362 603.594 342.119 604.339 342.119 605.277V617H336.111V605.149C336.111 604.237 335.864 603.517 335.369 602.989C334.875 602.46 334.223 602.196 333.413 602.196C332.868 602.196 332.386 602.328 331.969 602.592C331.551 602.848 331.223 603.214 330.984 603.692C330.754 604.169 330.639 604.732 330.639 605.379V617H324.388ZM366.895 617.371C364.841 617.371 363.068 616.966 361.577 616.156C360.094 615.338 358.952 614.175 358.151 612.666C357.358 611.149 356.962 609.347 356.962 607.259C356.962 605.23 357.362 603.457 358.163 601.94C358.964 600.415 360.094 599.23 361.551 598.386C363.009 597.534 364.726 597.108 366.703 597.108C368.101 597.108 369.379 597.325 370.538 597.76C371.697 598.195 372.699 598.838 373.543 599.69C374.386 600.543 375.043 601.595 375.511 602.848C375.98 604.092 376.214 605.52 376.214 607.131V608.69H359.148V605.06H370.398C370.389 604.395 370.232 603.803 369.925 603.283C369.618 602.763 369.196 602.358 368.659 602.068C368.131 601.77 367.521 601.621 366.831 601.621C366.132 601.621 365.506 601.778 364.952 602.094C364.398 602.401 363.959 602.822 363.635 603.359C363.311 603.888 363.141 604.489 363.124 605.162V608.857C363.124 609.658 363.281 610.361 363.597 610.966C363.912 611.562 364.359 612.027 364.939 612.359C365.518 612.692 366.209 612.858 367.01 612.858C367.564 612.858 368.067 612.781 368.518 612.628C368.97 612.474 369.358 612.249 369.682 611.95C370.006 611.652 370.249 611.286 370.411 610.851L376.151 611.017C375.912 612.304 375.388 613.425 374.578 614.379C373.777 615.325 372.724 616.062 371.42 616.591C370.116 617.111 368.608 617.371 366.895 617.371Z" fill="#1B2420"/>
<path d="M249.311 676.18C248.231 676.18 247.364 676.04 246.711 675.76C246.071 675.48 245.604 675.087 245.311 674.58C245.031 674.073 244.891 673.473 244.891 672.78C244.891 672.167 244.977 671.68 245.151 671.32C245.337 670.947 245.564 670.673 245.831 670.5C246.111 670.327 246.397 670.213 246.691 670.16V670.08C246.424 670 246.144 669.867 245.851 669.68C245.557 669.493 245.311 669.233 245.111 668.9C244.924 668.567 244.831 668.147 244.831 667.64C244.831 667.173 244.937 666.733 245.151 666.32C245.364 665.907 245.711 665.567 246.191 665.3C246.671 665.033 247.304 664.9 248.091 664.9C248.411 664.9 248.744 664.927 249.091 664.98C249.437 665.02 249.704 665.093 249.891 665.2L249.571 666.58C249.424 666.527 249.231 666.48 248.991 666.44C248.764 666.387 248.524 666.36 248.271 666.36C247.711 666.36 247.297 666.493 247.031 666.76C246.764 667.013 246.631 667.353 246.631 667.78C246.631 668.247 246.744 668.6 246.971 668.84C247.211 669.08 247.511 669.247 247.871 669.34C248.244 669.42 248.631 669.46 249.031 669.46H249.411V670.76H249.031C248.231 670.76 247.637 670.907 247.251 671.2C246.877 671.48 246.691 671.953 246.691 672.62C246.691 673.007 246.764 673.36 246.911 673.68C247.071 674 247.337 674.253 247.711 674.44C248.097 674.627 248.631 674.72 249.311 674.72C249.991 674.72 250.517 674.627 250.891 674.44C251.277 674.253 251.551 673.987 251.711 673.64C251.871 673.28 251.951 672.853 251.951 672.36V665.04H253.731V672.24C253.731 673.64 253.371 674.647 252.651 675.26C251.944 675.873 250.831 676.18 249.311 676.18ZM245.222 663.3V662.52L246.682 661.88H253.722V663.3H245.222ZM260.746 676.2C259.959 676.2 259.279 676.067 258.706 675.8C258.146 675.52 257.712 675.1 257.406 674.54C257.112 673.98 256.966 673.253 256.966 672.36V665.04H258.746V672.26C258.746 673.06 258.946 673.667 259.346 674.08C259.759 674.493 260.352 674.7 261.126 674.7C262.059 674.7 262.779 674.4 263.286 673.8C263.806 673.2 264.066 672.393 264.066 671.38V665.04H265.846V676H264.366L264.286 674.38H264.186C263.946 674.913 263.526 675.353 262.926 675.7C262.339 676.033 261.612 676.2 260.746 676.2ZM272.971 676.2C271.905 676.2 271.065 675.953 270.451 675.46C269.851 674.953 269.425 674.273 269.171 673.42C268.931 672.567 268.811 671.627 268.811 670.6C268.811 669.467 268.925 668.533 269.151 667.8C269.391 667.053 269.725 666.467 270.151 666.04C270.591 665.6 271.111 665.293 271.711 665.12C272.325 664.933 272.998 664.84 273.731 664.84C274.798 664.84 275.665 665 276.331 665.32C277.011 665.627 277.511 666.067 277.831 666.64C278.151 667.213 278.311 667.9 278.311 668.7V676H276.551V668.86C276.551 668.033 276.345 667.407 275.931 666.98C275.518 666.54 274.805 666.32 273.791 666.32C273.178 666.32 272.625 666.433 272.131 666.66C271.651 666.887 271.271 667.307 270.991 667.92C270.725 668.533 270.591 669.433 270.591 670.62C270.591 671.393 270.665 672.093 270.811 672.72C270.971 673.333 271.245 673.82 271.631 674.18C272.018 674.54 272.558 674.72 273.251 674.72C273.451 674.72 273.638 674.707 273.811 674.68C273.985 674.653 274.151 674.613 274.311 674.56L274.491 675.94C274.278 676.033 274.031 676.1 273.751 676.14C273.485 676.18 273.225 676.2 272.971 676.2ZM269.656 663.3V662.52L271.116 661.88H278.156V663.3H269.656ZM276.496 662.52V660.26H278.176V662.52H276.496ZM285.436 676.2C284.316 676.2 283.449 675.947 282.836 675.44C282.222 674.92 281.796 674.22 281.556 673.34C281.316 672.447 281.196 671.433 281.196 670.3C281.196 668.993 281.316 667.94 281.556 667.14C281.809 666.34 282.176 665.76 282.656 665.4C283.136 665.027 283.722 664.84 284.416 664.84C284.882 664.84 285.276 664.92 285.596 665.08C285.929 665.24 286.162 665.507 286.296 665.88H286.376C286.509 665.493 286.749 665.227 287.096 665.08C287.442 664.92 287.849 664.84 288.316 664.84C289.182 664.84 289.849 665.073 290.316 665.54C290.796 665.993 291.036 666.693 291.036 667.64V676H289.256V667.66C289.256 667.14 289.142 666.787 288.916 666.6C288.689 666.413 288.402 666.32 288.056 666.32C287.669 666.32 287.382 666.413 287.196 666.6C287.022 666.787 286.916 667.093 286.876 667.52H285.756C285.702 667.053 285.562 666.74 285.336 666.58C285.109 666.407 284.856 666.32 284.576 666.32C284.042 666.32 283.642 666.633 283.376 667.26C283.109 667.873 282.976 668.893 282.976 670.32C282.976 671.24 283.042 672.027 283.176 672.68C283.322 673.333 283.589 673.84 283.976 674.2C284.362 674.547 284.922 674.72 285.656 674.72C285.922 674.72 286.142 674.707 286.316 674.68C286.489 674.653 286.656 674.62 286.816 674.58L286.996 675.94C286.796 676.033 286.556 676.1 286.276 676.14C285.996 676.18 285.716 676.2 285.436 676.2ZM285.212 663.3V662.42C285.479 662.367 285.752 662.293 286.032 662.2C286.312 662.093 286.546 661.96 286.732 661.8C286.919 661.627 287.012 661.42 287.012 661.18C287.012 661.02 286.966 660.887 286.872 660.78C286.766 660.66 286.606 660.6 286.392 660.6C286.259 660.6 286.126 660.627 285.992 660.68C285.846 660.733 285.719 660.78 285.612 660.82L285.212 659.72C285.479 659.507 285.779 659.367 286.112 659.3C286.432 659.233 286.692 659.2 286.892 659.2C287.426 659.2 287.846 659.347 288.152 659.64C288.446 659.933 288.592 660.307 288.592 660.76C288.592 661.133 288.499 661.46 288.312 661.74C288.112 662.007 287.886 662.22 287.632 662.38L287.432 661.9H291.412V663.3H285.212ZM298.15 676.2C296.71 676.2 295.63 675.827 294.91 675.08C294.204 674.32 293.85 673.133 293.85 671.52C293.85 671.253 293.857 670.967 293.87 670.66C293.897 670.34 293.924 670.027 293.95 669.72H298.15V671.12H295.63V671.52C295.63 672.36 295.724 673.02 295.91 673.5C296.097 673.967 296.37 674.293 296.73 674.48C297.104 674.667 297.564 674.76 298.11 674.76C298.71 674.76 299.23 674.647 299.67 674.42C300.11 674.193 300.45 673.78 300.69 673.18C300.93 672.58 301.05 671.72 301.05 670.6C301.05 669.613 300.944 668.807 300.73 668.18C300.517 667.553 300.164 667.087 299.67 666.78C299.19 666.473 298.537 666.32 297.71 666.32C297.284 666.32 296.87 666.36 296.47 666.44C296.07 666.507 295.684 666.613 295.31 666.76C294.937 666.893 294.57 667.067 294.21 667.28V665.62C294.477 665.473 294.804 665.347 295.19 665.24C295.577 665.12 296.004 665.027 296.47 664.96C296.937 664.88 297.424 664.84 297.93 664.84C299.104 664.84 300.05 665.08 300.77 665.56C301.504 666.027 302.037 666.693 302.37 667.56C302.704 668.413 302.87 669.427 302.87 670.6C302.87 671.773 302.717 672.78 302.41 673.62C302.104 674.46 301.604 675.1 300.91 675.54C300.23 675.98 299.31 676.2 298.15 676.2ZM309.535 676.2C308.748 676.2 308.068 676.067 307.495 675.8C306.935 675.52 306.501 675.1 306.195 674.54C305.901 673.98 305.755 673.253 305.755 672.36V665.04H307.535V672.26C307.535 673.06 307.735 673.667 308.135 674.08C308.548 674.493 309.141 674.7 309.915 674.7C310.848 674.7 311.568 674.4 312.075 673.8C312.595 673.2 312.855 672.393 312.855 671.38V665.04H314.635V676H313.155L313.075 674.38H312.975C312.735 674.913 312.315 675.353 311.715 675.7C311.128 676.033 310.401 676.2 309.535 676.2ZM321.1 676.2C320.314 676.2 319.58 676.127 318.9 675.98C318.234 675.82 317.667 675.633 317.2 675.42L317.72 673.98C318 674.087 318.32 674.2 318.68 674.32C319.04 674.44 319.427 674.54 319.84 674.62C320.267 674.687 320.7 674.72 321.14 674.72C321.847 674.72 322.434 674.587 322.9 674.32C323.367 674.053 323.6 673.667 323.6 673.16C323.6 672.853 323.514 672.593 323.34 672.38C323.18 672.153 322.927 671.947 322.58 671.76C322.234 671.573 321.787 671.393 321.24 671.22C320.4 670.953 319.687 670.673 319.1 670.38C318.527 670.073 318.087 669.713 317.78 669.3C317.487 668.873 317.34 668.347 317.34 667.72C317.34 667.16 317.487 666.667 317.78 666.24C318.087 665.8 318.554 665.46 319.18 665.22C319.82 664.967 320.634 664.84 321.62 664.84C322.26 664.84 322.86 664.9 323.42 665.02C323.994 665.127 324.44 665.28 324.76 665.48V666.98C324.534 666.873 324.247 666.767 323.9 666.66C323.567 666.553 323.2 666.467 322.8 666.4C322.4 666.333 321.987 666.3 321.56 666.3C320.667 666.3 320.034 666.44 319.66 666.72C319.3 666.987 319.12 667.293 319.12 667.64C319.12 667.933 319.2 668.18 319.36 668.38C319.534 668.58 319.82 668.773 320.22 668.96C320.634 669.147 321.187 669.36 321.88 669.6C322.52 669.813 323.107 670.06 323.64 670.34C324.174 670.62 324.594 670.973 324.9 671.4C325.22 671.813 325.38 672.347 325.38 673C325.38 673.56 325.24 674.087 324.96 674.58C324.694 675.06 324.247 675.453 323.62 675.76C322.994 676.053 322.154 676.2 321.1 676.2ZM322.823 663.3C322.263 663.3 321.816 663.22 321.483 663.06C321.149 662.9 320.909 662.693 320.763 662.44C320.603 662.187 320.523 661.92 320.523 661.64C320.523 661.44 320.556 661.227 320.623 661C320.676 660.76 320.749 660.567 320.843 660.42L322.343 660.68C322.316 660.733 322.289 660.827 322.263 660.96C322.236 661.08 322.223 661.193 322.223 661.3C322.223 661.473 322.276 661.627 322.383 661.76C322.489 661.88 322.669 661.94 322.923 661.94H327.983V663.3H322.823ZM332.186 676.2C330.613 676.2 329.486 675.84 328.806 675.12C328.126 674.4 327.786 673.373 327.786 672.04V665.04H329.566V672.06C329.566 672.953 329.779 673.62 330.206 674.06C330.633 674.5 331.293 674.72 332.186 674.72C333.093 674.72 333.759 674.5 334.186 674.06C334.626 673.62 334.846 672.953 334.846 672.06V665.04H336.626V672.04C336.626 673.373 336.279 674.4 335.586 675.12C334.906 675.84 333.773 676.2 332.186 676.2ZM166.905 700V696.2C166.905 695.36 167.091 694.753 167.465 694.38C167.838 693.993 168.311 693.727 168.885 693.58L168.905 693.52L166.705 692.68V692.02C166.705 691.473 166.885 690.96 167.245 690.48C167.605 689.987 168.118 689.593 168.785 689.3C169.465 688.993 170.271 688.84 171.205 688.84C172.018 688.84 172.771 688.973 173.465 689.24C174.158 689.493 174.711 689.9 175.125 690.46C175.551 691.007 175.765 691.727 175.765 692.62V700H173.985V692.8C173.985 691.907 173.711 691.273 173.165 690.9C172.631 690.513 171.971 690.32 171.185 690.32C170.371 690.32 169.725 690.493 169.245 690.84C168.765 691.173 168.525 691.6 168.525 692.12L170.685 693.2L170.525 694.16C170.031 694.16 169.598 694.327 169.225 694.66C168.865 694.98 168.685 695.493 168.685 696.2V700H166.905ZM182.077 700.2C181.29 700.2 180.557 700.127 179.877 699.98C179.21 699.82 178.644 699.633 178.177 699.42L178.697 697.98C178.977 698.087 179.297 698.2 179.657 698.32C180.017 698.44 180.404 698.54 180.817 698.62C181.244 698.687 181.677 698.72 182.117 698.72C182.824 698.72 183.41 698.587 183.877 698.32C184.344 698.053 184.577 697.667 184.577 697.16C184.577 696.853 184.49 696.593 184.317 696.38C184.157 696.153 183.904 695.947 183.557 695.76C183.21 695.573 182.764 695.393 182.217 695.22C181.377 694.953 180.664 694.673 180.077 694.38C179.504 694.073 179.064 693.713 178.757 693.3C178.464 692.873 178.317 692.347 178.317 691.72C178.317 691.16 178.464 690.667 178.757 690.24C179.064 689.8 179.53 689.46 180.157 689.22C180.797 688.967 181.61 688.84 182.597 688.84C183.237 688.84 183.837 688.9 184.397 689.02C184.97 689.127 185.417 689.28 185.737 689.48V690.98C185.51 690.873 185.224 690.767 184.877 690.66C184.544 690.553 184.177 690.467 183.777 690.4C183.377 690.333 182.964 690.3 182.537 690.3C181.644 690.3 181.01 690.44 180.637 690.72C180.277 690.987 180.097 691.293 180.097 691.64C180.097 691.933 180.177 692.18 180.337 692.38C180.51 692.58 180.797 692.773 181.197 692.96C181.61 693.147 182.164 693.36 182.857 693.6C183.497 693.813 184.084 694.06 184.617 694.34C185.15 694.62 185.57 694.973 185.877 695.4C186.197 695.813 186.357 696.347 186.357 697C186.357 697.56 186.217 698.087 185.937 698.58C185.67 699.06 185.224 699.453 184.597 699.76C183.97 700.053 183.13 700.2 182.077 700.2ZM183.763 705.22V703.1C183.763 702.767 183.616 702.6 183.323 702.6C183.256 702.6 183.189 702.607 183.123 702.62C183.043 702.633 182.969 702.653 182.903 702.68L182.763 701.48C182.963 701.413 183.183 701.36 183.423 701.32C183.649 701.293 183.836 701.28 183.983 701.28C184.449 701.28 184.796 701.387 185.023 701.6C185.236 701.827 185.343 702.133 185.343 702.52V705.22H183.763ZM191.023 700.2C190.649 700.2 190.289 700.14 189.943 700.02C189.609 699.9 189.336 699.687 189.123 699.38C188.923 699.073 188.823 698.647 188.823 698.1V696.16C188.823 695.333 188.996 694.733 189.343 694.36C189.703 693.987 190.169 693.727 190.743 693.58L190.763 693.52L188.463 692.68V692.02C188.463 691.433 188.636 690.9 188.983 690.42C189.343 689.94 189.843 689.56 190.483 689.28C191.136 688.987 191.896 688.84 192.763 688.84C193.496 688.84 194.189 688.96 194.843 689.2C195.509 689.44 196.049 689.84 196.463 690.4C196.876 690.947 197.083 691.68 197.083 692.6V696.42C197.083 697.22 197.263 697.8 197.623 698.16C197.996 698.52 198.489 698.7 199.103 698.7C199.636 698.7 200.103 698.567 200.503 698.3C200.903 698.02 201.216 697.64 201.443 697.16C201.669 696.667 201.783 696.093 201.783 695.44V689.04H203.563V700H202.103L202.003 698.26H201.903C201.676 698.873 201.269 699.353 200.683 699.7C200.109 700.033 199.463 700.2 198.743 700.2C197.729 700.2 196.903 699.92 196.263 699.36C195.623 698.8 195.303 697.867 195.303 696.56V692.78C195.303 692.14 195.183 691.64 194.943 691.28C194.703 690.92 194.383 690.673 193.983 690.54C193.596 690.393 193.183 690.32 192.743 690.32C192.036 690.32 191.449 690.473 190.983 690.78C190.529 691.087 190.296 691.533 190.283 692.12L192.563 693.2L192.403 694.16C191.909 694.16 191.483 694.313 191.123 694.62C190.776 694.927 190.603 695.433 190.603 696.14V697.9C190.603 698.193 190.669 698.407 190.803 698.54C190.936 698.673 191.149 698.74 191.443 698.74C191.576 698.74 191.703 698.733 191.823 698.72C191.956 698.693 192.076 698.66 192.183 698.62L192.443 699.9C192.189 700.02 191.943 700.1 191.703 700.14C191.476 700.18 191.249 700.2 191.023 700.2ZM210.046 700V692.22C210.046 691.567 209.893 691.087 209.586 690.78C209.293 690.473 208.793 690.32 208.086 690.32C207.606 690.32 207.153 690.387 206.726 690.52C206.313 690.64 205.913 690.813 205.526 691.04V689.44C205.793 689.307 206.173 689.173 206.666 689.04C207.16 688.907 207.746 688.84 208.426 688.84C209.12 688.84 209.72 688.94 210.226 689.14C210.733 689.34 211.126 689.673 211.406 690.14C211.686 690.593 211.826 691.2 211.826 691.96V700H210.046ZM217.551 700.2C217.191 700.2 216.845 700.14 216.511 700.02C216.178 699.9 215.905 699.687 215.691 699.38C215.478 699.073 215.371 698.647 215.371 698.1V689.04H217.151V697.88C217.151 698.187 217.218 698.407 217.351 698.54C217.485 698.673 217.698 698.74 217.991 698.74C218.111 698.74 218.238 698.727 218.371 698.7C218.505 698.673 218.631 698.64 218.751 698.6L218.991 699.9C218.738 700.02 218.491 700.1 218.251 700.14C218.011 700.18 217.778 700.2 217.551 700.2ZM224.595 700.2C223.342 700.2 222.369 699.9 221.675 699.3C220.995 698.687 220.655 697.773 220.655 696.56V695.34C220.655 694.673 220.749 694.147 220.935 693.76C221.122 693.373 221.322 693.04 221.535 692.76C221.762 692.453 221.955 692.187 222.115 691.96C222.289 691.733 222.375 691.46 222.375 691.14C222.375 690.86 222.302 690.66 222.155 690.54C222.022 690.42 221.849 690.36 221.635 690.36C221.475 690.36 221.302 690.387 221.115 690.44C220.942 690.493 220.769 690.56 220.595 690.64L220.195 689.36C220.435 689.2 220.729 689.087 221.075 689.02C221.435 688.953 221.749 688.92 222.015 688.92C222.509 688.92 222.902 689.007 223.195 689.18C223.502 689.353 223.722 689.593 223.855 689.9C223.989 690.193 224.055 690.54 224.055 690.94C224.055 691.433 223.969 691.84 223.795 692.16C223.635 692.48 223.442 692.793 223.215 693.1C222.989 693.433 222.802 693.753 222.655 694.06C222.509 694.367 222.435 694.767 222.435 695.26V696.44C222.435 697.053 222.535 697.527 222.735 697.86C222.935 698.193 223.202 698.427 223.535 698.56C223.869 698.68 224.222 698.74 224.595 698.74C225.262 698.74 225.769 698.587 226.115 698.28C226.475 697.96 226.655 697.473 226.655 696.82V689.04H228.435V696.92C228.435 697.947 228.109 698.753 227.455 699.34C226.815 699.913 225.862 700.2 224.595 700.2ZM222.829 687.3V686.42C223.096 686.367 223.369 686.293 223.649 686.2C223.929 686.093 224.163 685.96 224.349 685.8C224.536 685.627 224.629 685.42 224.629 685.18C224.629 685.02 224.583 684.887 224.489 684.78C224.383 684.66 224.223 684.6 224.009 684.6C223.876 684.6 223.743 684.627 223.609 684.68C223.463 684.733 223.336 684.78 223.229 684.82L222.829 683.72C223.096 683.507 223.396 683.367 223.729 683.3C224.049 683.233 224.309 683.2 224.509 683.2C225.043 683.2 225.463 683.347 225.769 683.64C226.063 683.933 226.209 684.307 226.209 684.76C226.209 685.133 226.116 685.46 225.929 685.74C225.729 686.007 225.503 686.22 225.249 686.38L225.049 685.9H229.029V687.3H222.829ZM234.773 700V692.22C234.773 691.567 234.619 691.087 234.313 690.78C234.019 690.473 233.519 690.32 232.813 690.32C232.333 690.32 231.879 690.387 231.453 690.52C231.039 690.64 230.639 690.813 230.253 691.04V689.44C230.519 689.307 230.899 689.173 231.393 689.04C231.886 688.907 232.473 688.84 233.153 688.84C233.846 688.84 234.446 688.94 234.953 689.14C235.459 689.34 235.853 689.673 236.133 690.14C236.413 690.593 236.553 691.2 236.553 691.96V700H234.773ZM246.218 700V692.7C246.218 691.833 246.018 691.22 245.618 690.86C245.231 690.487 244.578 690.3 243.658 690.3C242.991 690.3 242.351 690.393 241.738 690.58C241.138 690.753 240.564 691 240.018 691.32V689.66C240.404 689.46 240.924 689.273 241.578 689.1C242.244 688.927 242.991 688.84 243.818 688.84C244.524 688.84 245.124 688.92 245.618 689.08C246.124 689.24 246.498 689.533 246.738 689.96C247.204 690.173 247.524 690.507 247.698 690.96C247.884 691.413 247.978 691.96 247.978 692.6V700H246.218ZM242.778 700.2C241.604 700.2 240.704 699.933 240.078 699.4C239.464 698.853 239.158 698.073 239.158 697.06C239.158 695.953 239.558 695.1 240.358 694.5C241.171 693.9 242.484 693.547 244.298 693.44L246.578 693.3V694.78L244.538 694.92C243.178 695.013 242.238 695.227 241.718 695.56C241.211 695.893 240.958 696.38 240.958 697.02C240.958 697.62 241.144 698.06 241.518 698.34C241.904 698.62 242.438 698.76 243.118 698.76C243.344 698.76 243.551 698.747 243.738 698.72C243.924 698.68 244.104 698.633 244.278 698.58L244.558 699.92C244.304 700.013 244.024 700.08 243.718 700.12C243.424 700.173 243.111 700.2 242.778 700.2ZM246.678 690.58L245.678 689.64C246.024 689.587 246.351 689.453 246.658 689.24C246.964 689.027 247.118 688.72 247.118 688.32H248.858C248.858 688.733 248.758 689.1 248.558 689.42C248.371 689.727 248.111 689.98 247.778 690.18C247.444 690.367 247.078 690.5 246.678 690.58ZM245.38 705.3C244.526 705.3 243.88 705.127 243.44 704.78C242.986 704.447 242.76 703.967 242.76 703.34V703C242.76 702.773 242.706 702.633 242.6 702.58C242.48 702.54 242.32 702.547 242.12 702.6L242 701.4C242.186 701.347 242.373 701.313 242.56 701.3C242.733 701.287 242.866 701.28 242.96 701.28C243.44 701.28 243.786 701.387 244 701.6C244.2 701.813 244.3 702.113 244.3 702.5V703.18C244.3 703.433 244.38 703.647 244.54 703.82C244.7 703.993 244.973 704.08 245.36 704.08C245.76 704.08 246.04 703.993 246.2 703.82C246.346 703.647 246.42 703.433 246.42 703.18V701.34H247.98V703.28C247.98 703.933 247.76 704.433 247.32 704.78C246.88 705.127 246.233 705.3 245.38 705.3ZM246.2 687.3V683.08H247.96V687.3H246.2ZM254.323 700.2C253.536 700.2 252.803 700.127 252.123 699.98C251.456 699.82 250.89 699.633 250.423 699.42L250.943 697.98C251.223 698.087 251.543 698.2 251.903 698.32C252.263 698.44 252.65 698.54 253.063 698.62C253.49 698.687 253.923 698.72 254.363 698.72C255.07 698.72 255.656 698.587 256.123 698.32C256.59 698.053 256.823 697.667 256.823 697.16C256.823 696.853 256.736 696.593 256.563 696.38C256.403 696.153 256.15 695.947 255.803 695.76C255.456 695.573 255.01 695.393 254.463 695.22C253.623 694.953 252.91 694.673 252.323 694.38C251.75 694.073 251.31 693.713 251.003 693.3C250.71 692.873 250.563 692.347 250.563 691.72C250.563 691.16 250.71 690.667 251.003 690.24C251.31 689.8 251.776 689.46 252.403 689.22C253.043 688.967 253.856 688.84 254.843 688.84C255.483 688.84 256.083 688.9 256.643 689.02C257.216 689.127 257.663 689.28 257.983 689.48V690.98C257.756 690.873 257.47 690.767 257.123 690.66C256.79 690.553 256.423 690.467 256.023 690.4C255.623 690.333 255.21 690.3 254.783 690.3C253.89 690.3 253.256 690.44 252.883 690.72C252.523 690.987 252.343 691.293 252.343 691.64C252.343 691.933 252.423 692.18 252.583 692.38C252.756 692.58 253.043 692.773 253.443 692.96C253.856 693.147 254.41 693.36 255.103 693.6C255.743 693.813 256.33 694.06 256.863 694.34C257.396 694.62 257.816 694.973 258.123 695.4C258.443 695.813 258.603 696.347 258.603 697C258.603 697.56 258.463 698.087 258.183 698.58C257.916 699.06 257.47 699.453 256.843 699.76C256.216 700.053 255.376 700.2 254.323 700.2ZM262.449 693.12C261.902 693.12 261.455 693.04 261.109 692.88C260.775 692.707 260.535 692.493 260.389 692.24C260.242 691.973 260.169 691.693 260.169 691.4C260.169 691.2 260.195 690.993 260.249 690.78C260.315 690.567 260.395 690.387 260.489 690.24L261.989 690.48C261.962 690.547 261.929 690.64 261.889 690.76C261.862 690.88 261.849 691 261.849 691.12C261.849 691.293 261.895 691.44 261.989 691.56C262.082 691.667 262.255 691.72 262.509 691.72H265.369V693.12H262.449ZM262.449 698.72C261.902 698.72 261.455 698.64 261.109 698.48C260.775 698.307 260.535 698.093 260.389 697.84C260.242 697.573 260.169 697.293 260.169 697C260.169 696.8 260.195 696.593 260.249 696.38C260.315 696.167 260.395 695.987 260.489 695.84L261.989 696.08C261.962 696.147 261.929 696.24 261.889 696.36C261.862 696.48 261.849 696.6 261.849 696.72C261.849 696.893 261.895 697.04 261.989 697.16C262.082 697.267 262.255 697.32 262.509 697.32H265.369V698.72H262.449ZM272.166 700.2C270.593 700.2 269.466 699.84 268.786 699.12C268.106 698.4 267.766 697.373 267.766 696.04V689.04H269.546V696.06C269.546 696.953 269.76 697.62 270.186 698.06C270.613 698.5 271.273 698.72 272.166 698.72C273.073 698.72 273.74 698.5 274.166 698.06C274.606 697.62 274.826 696.953 274.826 696.06V689.04H276.606V696.04C276.606 697.373 276.26 698.4 275.566 699.12C274.886 699.84 273.753 700.2 272.166 700.2ZM284.237 700.2C282.663 700.2 281.537 699.84 280.857 699.12C280.177 698.4 279.837 697.373 279.837 696.04V689.04H281.617V696.06C281.617 696.953 281.83 697.62 282.257 698.06C282.683 698.5 283.343 698.72 284.237 698.72C285.143 698.72 285.81 698.5 286.237 698.06C286.677 697.62 286.897 696.953 286.897 696.06V689.04H288.677V696.04C288.677 697.373 288.33 698.4 287.637 699.12C286.957 699.84 285.823 700.2 284.237 700.2ZM294.387 700.2C294.027 700.2 293.68 700.14 293.347 700.02C293.014 699.9 292.74 699.687 292.527 699.38C292.314 699.073 292.207 698.647 292.207 698.1V689.04H293.987V697.88C293.987 698.187 294.054 698.407 294.187 698.54C294.32 698.673 294.534 698.74 294.827 698.74C294.947 698.74 295.074 698.727 295.207 698.7C295.34 698.673 295.467 698.64 295.587 698.6L295.827 699.9C295.574 700.02 295.327 700.1 295.087 700.14C294.847 700.18 294.614 700.2 294.387 700.2ZM298.614 700L296.634 689.04H298.454L299.234 693.8C299.301 694.187 299.368 694.687 299.434 695.3C299.501 695.913 299.581 696.64 299.674 697.48H299.734C299.854 696.907 299.968 696.393 300.074 695.94C300.194 695.487 300.301 695.08 300.394 694.72C300.501 694.347 300.594 694.02 300.674 693.74L302.014 689.04H303.474L304.834 693.74C304.914 694.02 305.001 694.347 305.094 694.72C305.201 695.08 305.308 695.487 305.414 695.94C305.534 696.393 305.654 696.907 305.774 697.48H305.854C305.934 696.64 306.008 695.913 306.074 695.3C306.141 694.687 306.208 694.187 306.274 693.8L307.074 689.04H308.894L306.914 700H305.174L303.334 694.04C303.241 693.707 303.148 693.36 303.054 693C302.974 692.64 302.894 692.167 302.814 691.58H302.734C302.681 691.967 302.621 692.307 302.554 692.6C302.488 692.893 302.421 693.153 302.354 693.38C302.288 693.607 302.221 693.827 302.154 694.04L300.354 700H298.614ZM299.558 687.3V686.52L301.018 685.88H308.058V687.3H299.558ZM303.678 686.52V684.26H305.158V686.52H303.678ZM306.598 686.52V684.26H308.058V686.52H306.598ZM305.069 683.08V679.82H306.769V683.08H305.069ZM315.221 700.2C313.781 700.2 312.701 699.827 311.981 699.08C311.274 698.32 310.921 697.133 310.921 695.52C310.921 695.253 310.927 694.967 310.941 694.66C310.967 694.34 310.994 694.027 311.021 693.72H315.221V695.12H312.701V695.52C312.701 696.36 312.794 697.02 312.981 697.5C313.167 697.967 313.441 698.293 313.801 698.48C314.174 698.667 314.634 698.76 315.181 698.76C315.781 698.76 316.301 698.647 316.741 698.42C317.181 698.193 317.521 697.78 317.761 697.18C318.001 696.58 318.121 695.72 318.121 694.6C318.121 693.613 318.014 692.807 317.801 692.18C317.587 691.553 317.234 691.087 316.741 690.78C316.261 690.473 315.607 690.32 314.781 690.32C314.354 690.32 313.941 690.36 313.541 690.44C313.141 690.507 312.754 690.613 312.381 690.76C312.007 690.893 311.641 691.067 311.281 691.28V689.62C311.547 689.473 311.874 689.347 312.261 689.24C312.647 689.12 313.074 689.027 313.541 688.96C314.007 688.88 314.494 688.84 315.001 688.84C316.174 688.84 317.121 689.08 317.841 689.56C318.574 690.027 319.107 690.693 319.441 691.56C319.774 692.413 319.941 693.427 319.941 694.6C319.941 695.773 319.787 696.78 319.481 697.62C319.174 698.46 318.674 699.1 317.981 699.54C317.301 699.98 316.381 700.2 315.221 700.2ZM325.305 700.2C324.945 700.2 324.598 700.14 324.265 700.02C323.932 699.9 323.658 699.687 323.445 699.38C323.232 699.073 323.125 698.647 323.125 698.1V689.04H324.905V697.88C324.905 698.187 324.972 698.407 325.105 698.54C325.238 698.673 325.452 698.74 325.745 698.74C325.865 698.74 325.992 698.727 326.125 698.7C326.258 698.673 326.385 698.64 326.505 698.6L326.745 699.9C326.492 700.02 326.245 700.1 326.005 700.14C325.765 700.18 325.532 700.2 325.305 700.2ZM331.608 700.2C330.822 700.2 330.088 700.127 329.408 699.98C328.742 699.82 328.175 699.633 327.708 699.42L328.228 697.98C328.508 698.087 328.828 698.2 329.188 698.32C329.548 698.44 329.935 698.54 330.348 698.62C330.775 698.687 331.208 698.72 331.648 698.72C332.355 698.72 332.942 698.587 333.408 698.32C333.875 698.053 334.108 697.667 334.108 697.16C334.108 696.853 334.022 696.593 333.848 696.38C333.688 696.153 333.435 695.947 333.088 695.76C332.742 695.573 332.295 695.393 331.748 695.22C330.908 694.953 330.195 694.673 329.608 694.38C329.035 694.073 328.595 693.713 328.288 693.3C327.995 692.873 327.848 692.347 327.848 691.72C327.848 691.16 327.995 690.667 328.288 690.24C328.595 689.8 329.062 689.46 329.688 689.22C330.328 688.967 331.142 688.84 332.128 688.84C332.768 688.84 333.368 688.9 333.928 689.02C334.502 689.127 334.948 689.28 335.268 689.48V690.98C335.042 690.873 334.755 690.767 334.408 690.66C334.075 690.553 333.708 690.467 333.308 690.4C332.908 690.333 332.495 690.3 332.068 690.3C331.175 690.3 330.542 690.44 330.168 690.72C329.808 690.987 329.628 691.293 329.628 691.64C329.628 691.933 329.708 692.18 329.868 692.38C330.042 692.58 330.328 692.773 330.728 692.96C331.142 693.147 331.695 693.36 332.388 693.6C333.028 693.813 333.615 694.06 334.148 694.34C334.682 694.62 335.102 694.973 335.408 695.4C335.728 695.813 335.888 696.347 335.888 697C335.888 697.56 335.748 698.087 335.468 698.58C335.202 699.06 334.755 699.453 334.128 699.76C333.502 700.053 332.662 700.2 331.608 700.2ZM327.37 687.3V686.52L328.83 685.88H335.87V687.3H327.37ZM334.19 684.08V680.82H335.89V684.08H334.19ZM343.574 700.2C342.72 700.2 341.98 700.033 341.354 699.7C340.74 699.353 340.32 698.873 340.094 698.26H340.014L339.914 700H338.454V689.04H340.234V695.38C340.234 696.047 340.347 696.633 340.574 697.14C340.814 697.633 341.154 698.02 341.594 698.3C342.047 698.567 342.587 698.7 343.214 698.7C344 698.7 344.587 698.493 344.974 698.08C345.36 697.667 345.554 697.06 345.554 696.26V689.04H347.334V696.38C347.334 697.26 347.18 697.98 346.874 698.54C346.58 699.1 346.154 699.52 345.594 699.8C345.034 700.067 344.36 700.2 343.574 700.2ZM354.459 700.2C353.339 700.2 352.472 699.947 351.859 699.44C351.246 698.92 350.819 698.22 350.579 697.34C350.339 696.447 350.219 695.433 350.219 694.3C350.219 692.993 350.339 691.94 350.579 691.14C350.832 690.34 351.199 689.76 351.679 689.4C352.159 689.027 352.746 688.84 353.439 688.84C353.906 688.84 354.299 688.92 354.619 689.08C354.952 689.24 355.186 689.507 355.319 689.88H355.399C355.532 689.493 355.772 689.227 356.119 689.08C356.466 688.92 356.872 688.84 357.339 688.84C358.206 688.84 358.872 689.073 359.339 689.54C359.819 689.993 360.059 690.693 360.059 691.64V700H358.279V691.66C358.279 691.14 358.166 690.787 357.939 690.6C357.712 690.413 357.426 690.32 357.079 690.32C356.692 690.32 356.406 690.413 356.219 690.6C356.046 690.787 355.939 691.093 355.899 691.52H354.779C354.726 691.053 354.586 690.74 354.359 690.58C354.132 690.407 353.879 690.32 353.599 690.32C353.066 690.32 352.666 690.633 352.399 691.26C352.132 691.873 351.999 692.893 351.999 694.32C351.999 695.24 352.066 696.027 352.199 696.68C352.346 697.333 352.612 697.84 352.999 698.2C353.386 698.547 353.946 698.72 354.679 698.72C354.946 698.72 355.166 698.707 355.339 698.68C355.512 698.653 355.679 698.62 355.839 698.58L356.019 699.94C355.819 700.033 355.579 700.1 355.299 700.14C355.019 700.18 354.739 700.2 354.459 700.2ZM354.236 687.3V686.42C354.502 686.367 354.776 686.293 355.056 686.2C355.336 686.093 355.569 685.96 355.756 685.8C355.942 685.627 356.036 685.42 356.036 685.18C356.036 685.02 355.989 684.887 355.896 684.78C355.789 684.66 355.629 684.6 355.416 684.6C355.282 684.6 355.149 684.627 355.016 684.68C354.869 684.733 354.742 684.78 354.636 684.82L354.236 683.72C354.502 683.507 354.802 683.367 355.136 683.3C355.456 683.233 355.716 683.2 355.916 683.2C356.449 683.2 356.869 683.347 357.176 683.64C357.469 683.933 357.616 684.307 357.616 684.76C357.616 685.133 357.522 685.46 357.336 685.74C357.136 686.007 356.909 686.22 356.656 686.38L356.456 685.9H360.436V687.3H354.236ZM367.074 700.2C366.287 700.2 365.607 700.067 365.034 699.8C364.474 699.52 364.04 699.1 363.734 698.54C363.44 697.98 363.294 697.253 363.294 696.36V689.04H365.074V696.26C365.074 697.06 365.274 697.667 365.674 698.08C366.087 698.493 366.68 698.7 367.454 698.7C368.387 698.7 369.107 698.4 369.614 697.8C370.134 697.2 370.394 696.393 370.394 695.38V689.04H372.174V700H370.694L370.614 698.38H370.514C370.274 698.913 369.854 699.353 369.254 699.7C368.667 700.033 367.94 700.2 367.074 700.2ZM377.859 700.2C377.486 700.2 377.133 700.14 376.799 700.02C376.466 699.9 376.193 699.687 375.979 699.38C375.766 699.073 375.659 698.647 375.659 698.1V690.28C375.659 689.907 375.693 689.607 375.759 689.38C375.826 689.14 375.933 688.907 376.079 688.68C376.239 688.453 376.459 688.167 376.739 687.82C377.073 687.407 377.319 687.067 377.479 686.8C377.639 686.533 377.719 686.24 377.719 685.92C377.719 685.533 377.599 685.247 377.359 685.06C377.133 684.86 376.779 684.76 376.299 684.76C375.886 684.76 375.506 684.82 375.159 684.94C374.826 685.06 374.546 685.18 374.319 685.3V683.78C374.506 683.673 374.786 683.573 375.159 683.48C375.546 683.373 375.999 683.32 376.519 683.32C377.399 683.32 378.106 683.52 378.639 683.92C379.186 684.307 379.459 684.907 379.459 685.72C379.459 686.253 379.359 686.72 379.159 687.12C378.959 687.52 378.726 687.88 378.459 688.2C378.233 688.493 378.039 688.74 377.879 688.94C377.733 689.127 377.619 689.32 377.539 689.52C377.473 689.72 377.439 689.987 377.439 690.32V697.88C377.439 698.187 377.506 698.407 377.639 698.54C377.773 698.673 377.979 698.74 378.259 698.74C378.406 698.74 378.546 698.727 378.679 698.7C378.813 698.673 378.933 698.64 379.039 698.6L379.279 699.9C379.026 700.02 378.779 700.1 378.539 700.14C378.313 700.18 378.086 700.2 377.859 700.2ZM384.986 700.2C383.72 700.2 382.74 699.9 382.046 699.3C381.366 698.687 381.026 697.773 381.026 696.56V695.34C381.026 694.673 381.12 694.147 381.306 693.76C381.493 693.373 381.693 693.04 381.906 692.76C382.133 692.453 382.326 692.187 382.486 691.96C382.66 691.733 382.746 691.46 382.746 691.14C382.746 690.86 382.673 690.66 382.526 690.54C382.393 690.42 382.22 690.36 382.006 690.36C381.846 690.36 381.673 690.387 381.486 690.44C381.313 690.493 381.14 690.56 380.966 690.64L380.566 689.36C380.806 689.2 381.1 689.087 381.446 689.02C381.806 688.953 382.12 688.92 382.386 688.92C382.88 688.92 383.273 689.007 383.566 689.18C383.873 689.353 384.093 689.593 384.226 689.9C384.36 690.193 384.426 690.54 384.426 690.94C384.426 691.433 384.34 691.84 384.166 692.16C384.006 692.48 383.813 692.793 383.586 693.1C383.36 693.433 383.173 693.753 383.026 694.06C382.88 694.367 382.806 694.767 382.806 695.26V696.44C382.806 697.053 382.906 697.527 383.106 697.86C383.306 698.193 383.573 698.427 383.906 698.56C384.24 698.68 384.6 698.74 384.986 698.74C385.653 698.74 386.16 698.587 386.506 698.28C386.853 697.96 387.026 697.473 387.026 696.82V694.02C387.026 693.527 386.913 693.153 386.686 692.9C386.46 692.633 386.093 692.5 385.586 692.5H385.506V691.36H385.606C386.153 691.36 386.54 691.233 386.766 690.98C386.993 690.727 387.126 690.42 387.166 690.06C387.22 689.687 387.246 689.347 387.246 689.04H389.026C389.026 689.747 388.94 690.347 388.766 690.84C388.593 691.333 388.2 691.693 387.586 691.92V692C387.96 692.093 388.226 692.253 388.386 692.48C388.56 692.693 388.673 692.94 388.726 693.22C388.78 693.487 388.806 693.747 388.806 694V696.92C388.806 697.947 388.486 698.753 387.846 699.34C387.206 699.913 386.253 700.2 384.986 700.2ZM383.454 687.3V686.42C383.721 686.367 383.994 686.293 384.274 686.2C384.554 686.093 384.788 685.96 384.974 685.8C385.161 685.627 385.254 685.42 385.254 685.18C385.254 685.02 385.208 684.887 385.114 684.78C385.008 684.66 384.848 684.6 384.634 684.6C384.501 684.6 384.368 684.627 384.234 684.68C384.088 684.733 383.961 684.78 383.854 684.82L383.454 683.72C383.721 683.507 384.021 683.367 384.354 683.3C384.674 683.233 384.934 683.2 385.134 683.2C385.668 683.2 386.088 683.347 386.394 683.64C386.688 683.933 386.834 684.307 386.834 684.76C386.834 685.133 386.741 685.46 386.554 685.74C386.354 686.007 386.128 686.22 385.874 686.38L385.674 685.9H389.654V687.3H383.454ZM393.902 700L390.482 689.04H392.282L395.242 698.46H395.482C395.802 698.46 396.116 698.387 396.422 698.24C396.729 698.08 396.989 697.88 397.202 697.64C397.602 697.2 397.896 696.647 398.082 695.98C398.269 695.3 398.362 694.633 398.362 693.98C398.362 692.873 398.109 692.007 397.602 691.38C397.109 690.74 396.422 690.42 395.542 690.42C395.369 690.42 395.196 690.433 395.022 690.46C394.862 690.487 394.729 690.52 394.622 690.56L394.182 689.14C394.462 689.06 394.722 689.007 394.962 688.98C395.216 688.953 395.442 688.94 395.642 688.94C396.309 688.94 396.902 689.04 397.422 689.24C397.956 689.427 398.409 689.707 398.782 690.08C399.249 690.533 399.589 691.1 399.802 691.78C400.029 692.46 400.142 693.213 400.142 694.04C400.142 695.08 399.982 696.007 399.662 696.82C399.342 697.62 398.942 698.26 398.462 698.74C398.076 699.127 397.602 699.433 397.042 699.66C396.482 699.887 395.769 700 394.902 700H393.902ZM405.945 700V692.22C405.945 691.567 405.791 691.087 405.485 690.78C405.191 690.473 404.691 690.32 403.985 690.32C403.505 690.32 403.051 690.387 402.625 690.52C402.211 690.64 401.811 690.813 401.425 691.04V689.44C401.691 689.307 402.071 689.173 402.565 689.04C403.058 688.907 403.645 688.84 404.325 688.84C405.018 688.84 405.618 688.94 406.125 689.14C406.631 689.34 407.025 689.673 407.305 690.14C407.585 690.593 407.725 691.2 407.725 691.96V700H405.945ZM414.75 700.2C413.963 700.2 413.283 700.067 412.71 699.8C412.15 699.52 411.716 699.1 411.41 698.54C411.116 697.98 410.97 697.253 410.97 696.36V689.04H412.75V696.26C412.75 697.06 412.95 697.667 413.35 698.08C413.763 698.493 414.356 698.7 415.13 698.7C416.063 698.7 416.783 698.4 417.29 697.8C417.81 697.2 418.07 696.393 418.07 695.38V689.04H419.85V700H418.37L418.29 698.38H418.19C417.95 698.913 417.53 699.353 416.93 699.7C416.343 700.033 415.616 700.2 414.75 700.2Z" fill="#1B2420"/>
</g>
<defs>
<linearGradient id="paint0_linear_7_490" x1="294" y1="-398.407" x2="294" y2="1043.95" gradientUnits="userSpaceOnUse">
<stop stop-color="#338064"/>
<stop offset="1" stop-color="#8FCCB6"/>
</linearGradient>
<linearGradient id="paint1_linear_7_490" x1="-442" y1="186.74" x2="267.936" y2="186.74" gradientUnits="userSpaceOnUse">
<stop stop-color="#338064"/>
<stop offset="1" stop-color="#8FCCB6"/>
</linearGradient>
<linearGradient id="paint2_linear_7_490" x1="241" y1="1148.5" x2="645.5" y2="870.5" gradientUnits="userSpaceOnUse">
<stop stop-color="#5FD7AB"/>
<stop offset="1" stop-color="#A4DDC8"/>
</linearGradient>
<clipPath id="clip0_7_490">
<rect width="588" height="1024" fill="white"/>
</clipPath>
<clipPath id="clip1_7_490">
<rect width="399" height="278" fill="white" transform="translate(95 218)"/>
</clipPath>
</defs>
</svg>
